<svg width="14" height="14" viewBox="0 0 14 14" fill="none" xmlns="http://www.w3.org/2000/svg">
<path d="M12.15 4.17771C11.7004 4.17807 11.2666 4.34422 10.9318 4.64437C10.597 4.94453 10.3846 5.3576 10.3353 5.80455L10.3344 5.81287L8.92041 6.19131C8.71902 5.93065 8.44952 5.73071 8.14166 5.61359L8.12919 5.60965V4.06746C8.81322 3.7914 9.28703 3.13296 9.28703 2.3634C9.28703 1.35102 8.46672 0.530273 7.45391 0.530273C6.96781 0.530389 6.50166 0.723573 6.15797 1.06734C5.81429 1.4111 5.62122 1.8773 5.62122 2.3634C5.6211 2.72863 5.73008 3.08557 5.9342 3.38845C6.13831 3.69132 6.42824 3.92632 6.76681 4.0633L6.77884 4.06768V5.56327C6.62496 5.6223 6.48058 5.7036 6.35031 5.80455L6.35425 5.80149L3.66581 4.33521C3.66864 4.28158 3.66864 4.22784 3.66581 4.17421V4.17815C3.66581 3.16555 2.8455 2.34502 1.83291 2.34502C1.34677 2.34508 0.880563 2.53824 0.536833 2.88201C0.193102 3.22578 -3.46131e-09 3.69201 0 4.17815C5.80116e-05 4.66429 0.193216 5.13049 0.536987 5.47422C0.880759 5.81795 1.34699 6.01105 1.83312 6.01105C2.2819 6.01104 2.71429 5.8424 3.04456 5.53855L3.04325 5.53965L5.64987 6.97684C5.64088 7.07982 5.64102 7.18341 5.65031 7.28637L5.64987 7.2798C5.65011 7.52588 5.69918 7.76946 5.79425 7.99643L5.78966 7.98418L3.75288 9.96234C3.51815 9.85179 3.26201 9.79414 3.00256 9.79346H3.00213L2.96712 9.79302C2.72566 9.79302 2.48656 9.84059 2.26348 9.933C2.04039 10.0254 1.8377 10.1609 1.66697 10.3316C1.49623 10.5024 1.36081 10.7051 1.26842 10.9282C1.17604 11.1513 1.1285 11.3904 1.12853 11.6318C1.12853 11.8733 1.1761 12.1124 1.26851 12.3355C1.36092 12.5586 1.49637 12.7613 1.66712 12.932C1.83787 13.1027 2.04058 13.2382 2.26368 13.3305C2.48677 13.4229 2.72588 13.4705 2.96734 13.4704C3.20879 13.4704 3.44787 13.4229 3.67094 13.3305C3.89401 13.2381 4.0967 13.1026 4.26743 12.9319C4.43816 12.7612 4.57359 12.5585 4.66598 12.3354C4.75838 12.1124 4.80594 11.8733 4.80594 11.6318C4.81352 11.3805 4.76651 11.1305 4.66813 10.899L4.6725 10.9104L6.70906 8.93202C6.94319 9.03996 7.19806 9.0955 7.45587 9.09477H7.46025C7.63222 9.09358 7.80308 9.06705 7.96731 9.01602L7.95506 9.0193L8.53694 9.92143C8.32458 10.225 8.21078 10.5865 8.211 10.957V10.9627C8.211 11.4503 8.40471 11.918 8.74951 12.2628C9.09432 12.6076 9.56197 12.8013 10.0496 12.8013C10.5372 12.8013 11.0049 12.6076 11.3497 12.2628C11.6945 11.918 11.8882 11.4503 11.8882 10.9627C11.8882 10.4751 11.6945 10.0074 11.3497 9.6626C11.0049 9.31779 10.5372 9.12409 10.0496 9.12409C9.91426 9.12436 9.77944 9.14074 9.64797 9.17287L9.65978 9.17024L9.0195 8.19834C9.15266 7.98151 9.2359 7.73776 9.26319 7.48477L9.26384 7.47712L10.6835 7.09868C10.9108 7.41222 11.2316 7.6457 11.5999 7.76561C11.9681 7.88551 12.3649 7.88569 12.7332 7.7661C13.1016 7.64652 13.4226 7.41333 13.6501 7.09999C13.8777 6.78664 14.0002 6.40926 14 6.02199C14.0001 5.78128 13.9527 5.5429 13.8607 5.32049C13.7686 5.09807 13.6336 4.89597 13.4634 4.72574C13.2932 4.55551 13.0912 4.42047 12.8688 4.32836C12.6464 4.23624 12.408 4.18884 12.1673 4.18887H12.1494H12.1502L12.15 4.17771Z" fill="white"/>
</svg>
