<svg width="14" height="14" viewBox="0 0 14 14" fill="none" xmlns="http://www.w3.org/2000/svg">
<path d="M13.9991 7.86721C13.7822 7.76768 13.5461 7.71648 13.3074 7.71714C13.0569 7.71714 12.819 7.77256 12.6054 7.87158L12.6156 7.86721C12.6613 7.70008 12.6876 7.50846 12.6876 7.311C12.6876 6.54508 12.2936 5.87104 11.6979 5.48065L11.6896 5.47525C12.6977 5.38162 13.2252 3.64067 13.2252 3.64067C12.5609 2.41392 11.587 1.42867 10.4065 0.769208L10.3705 0.750687C10.3705 0.750687 8.67037 0.516333 8.16025 1.05533C7.52719 0.029541 5.7276 0.029541 5.7276 0.029541C4.2999 0.303416 3.06177 0.977895 2.0981 1.92975L2.09898 1.92902C2.09913 2.19882 2.15998 2.46513 2.27704 2.70821C2.3941 2.95129 2.56436 3.16491 2.77521 3.33325L2.77871 3.33587C1.88183 3.5469 0.949667 4.80733 1.10221 5.31746C1.01108 5.19543 0.892729 5.09636 0.756572 5.02813C0.620415 4.9599 0.470212 4.9244 0.317917 4.92444C0.309264 4.92444 0.300611 4.92458 0.291958 4.92487H0.293271C0.108646 5.52673 0.0013125 6.21842 0 6.93504V6.93635C0 7.70971 0.126583 8.45317 0.360208 9.14792L0.346062 9.09906C0.674544 8.83481 0.924231 8.4855 1.06794 8.08917L1.07275 8.07327C1.51725 8.36654 2.06296 8.54067 2.64906 8.54067C2.93738 8.54067 3.21621 8.49837 3.47958 8.41977L3.45887 8.42502C3.27425 8.79835 3.16604 9.2376 3.16604 9.70237C3.16604 10.2857 3.33667 10.8292 3.63037 11.2855L3.62337 11.2742C3.07206 11.3514 2.56481 11.6182 2.18867 12.0286L2.18692 12.0305C3.44575 13.2307 5.15375 13.9697 7.03471 13.9706C7.63262 13.9693 8.2126 13.8923 8.76531 13.749L8.71733 13.7596C8.39067 13.0029 7.79567 12.4137 7.05542 12.1025L7.03471 12.0951C7.8556 12.048 8.66454 10.8463 8.79346 10.0255C9.38306 10.2937 10.0724 10.4498 10.7984 10.4498C10.974 10.4498 11.1495 10.4406 11.3241 10.4221L11.3027 10.4238C11.1768 10.733 11.1039 11.0917 11.1039 11.4671C11.1039 11.8426 11.1768 12.2014 11.3095 12.5298L11.3031 12.5108C12.7434 11.4012 13.7353 9.77004 13.9956 7.90498L14 7.86808L13.9991 7.86721ZM8.62327 9.13946C7.7264 7.87319 5.15871 7.1169 3.81019 7.8675C4.58398 5.96802 4.31448 4.73121 3.35285 3.41798C5.1116 3.5819 7.19877 2.66752 8.04285 1.49531C8.28348 2.76727 9.68421 4.88958 10.9741 5.31731C8.87556 6.27267 8.63508 7.77942 8.62327 9.13946Z" fill="#A3A3A3"/>
</svg>
