<svg width="14" height="14" viewBox="0 0 14 14" fill="none" xmlns="http://www.w3.org/2000/svg">
<path fill-rule="evenodd" clip-rule="evenodd" d="M12.6405 11.1253C13.1891 10.3765 13.5837 9.52628 13.8013 8.62385C12.9951 8.74842 12.2274 9.05341 11.5555 9.51606C11.9405 10.0349 12.3022 10.5773 12.6405 11.1253ZM9.20466 13.6326C10.2022 13.3003 11.0947 12.7522 11.8355 12.0467C11.4738 11.4402 11.0888 10.8455 10.6688 10.2799C9.83466 11.172 9.29216 12.3382 9.21049 13.6326H9.20466ZM10.4763 2.41398C10.4763 4.02325 9.95133 5.51017 9.06466 6.72306C9.68883 7.31777 10.278 7.94165 10.8263 8.60635C11.7573 7.9498 12.8426 7.54601 13.9763 7.43444C13.988 7.2886 13.9997 7.1486 13.9997 6.99708C13.9997 4.32658 12.5005 2.00579 10.3013 0.828042C10.4122 1.34108 10.4763 1.87177 10.4763 2.41398ZM1.97133 2.13996C4.25799 3.06687 6.36383 4.34992 8.20133 5.93585C8.90133 4.93879 9.30966 3.7259 9.30966 2.41398C9.30968 1.68296 9.17727 0.95798 8.91883 0.274167C8.30633 0.0991667 7.66466 0 6.99966 0C5.02216 0 3.24299 0.822208 1.97133 2.13996ZM3.13799 9.75508C2.15216 9.75508 1.21883 9.55675 0.361328 9.20704C1.28883 11.9884 3.90799 14 6.99966 14C7.34966 14 7.68799 13.965 8.02633 13.9183C8.04966 12.1457 8.77299 10.5365 9.93966 9.35856C9.43216 8.74635 8.88966 8.16915 8.31799 7.62096C6.98799 8.94454 5.16216 9.76092 3.14383 9.76092L3.13799 9.75508Z" fill="#A3A3A3"/>
<path fill-rule="evenodd" clip-rule="evenodd" d="M7.44917 6.82797C5.59728 5.23042 3.48383 3.96413 1.20167 3.08472C0.443333 4.1983 0 5.54522 0 6.99713C0 7.24797 0.0175 7.49865 0.0408333 7.74351C0.950833 8.27405 2.00667 8.58322 3.13833 8.58322C4.8125 8.58322 6.335 7.91253 7.44917 6.82228V6.82797Z" fill="#A3A3A3"/>
</svg>
