<svg width="16" height="16" viewBox="0 0 16 16" fill="none" xmlns="http://www.w3.org/2000/svg">
<g clip-path="url(#clip0_940_6416)">
<path d="M15.7628 9.93524C14.6944 14.2209 10.3535 16.8292 6.06726 15.7605C1.78279 14.692 -0.825432 10.351 0.243494 6.06557C1.31148 1.77935 5.65226 -0.829071 9.93719 0.239388C14.2232 1.30785 16.8312 5.64936 15.7626 9.93532L15.7628 9.93524Z" fill="#F7931A"/>
<path fill-rule="evenodd" clip-rule="evenodd" d="M11.5287 6.86023C11.6879 5.7956 10.8774 5.22332 9.76901 4.84156L10.1286 3.39943L9.25069 3.18068L8.90068 4.58484C8.66989 4.52728 8.43289 4.47306 8.19733 4.41928L8.54989 3.00586L7.67257 2.78711L7.31281 4.22878C7.12184 4.18528 6.93426 4.14231 6.75228 4.09703L6.75329 4.0925L5.54269 3.79019L5.30917 4.7278C5.30917 4.7278 5.96046 4.87711 5.94674 4.8863C6.30224 4.97502 6.36652 5.21034 6.35584 5.39687L5.94628 7.03979C5.97076 7.046 6.0025 7.055 6.03754 7.06908L6.01208 7.06272C5.99041 7.05731 5.96786 7.05166 5.94474 7.04612L5.37068 9.34763C5.32724 9.45563 5.21696 9.61771 4.96842 9.55616C4.97721 9.56891 4.33037 9.39694 4.33037 9.39694L3.89453 10.4018L5.03693 10.6866C5.16202 10.718 5.28564 10.7502 5.40801 10.7821L5.40825 10.7822C5.49369 10.8044 5.57852 10.8266 5.66281 10.8481L5.29954 12.3068L6.1764 12.5255L6.53614 11.0823C6.77569 11.1474 7.00816 11.2073 7.23574 11.2639L6.87721 12.7003L7.75512 12.919L8.11834 11.4631C9.61529 11.7464 10.7409 11.6322 11.2147 10.2782C11.5964 9.18804 11.1957 8.55927 10.4081 8.14923C10.9817 8.01694 11.4138 7.63967 11.529 6.86035L11.5287 6.86023ZM9.52293 9.67276C9.27402 10.6729 7.70852 10.2594 6.99224 10.0702C6.92781 10.0532 6.87025 10.038 6.82113 10.0258L7.3032 8.09335C7.36305 8.1083 7.43618 8.12471 7.51905 8.1433C8.25994 8.30958 9.77792 8.65024 9.52293 9.67276ZM7.66768 7.2464C8.26484 7.40578 9.56756 7.75344 9.79442 6.84443C10.0261 5.91474 8.76016 5.63444 8.14184 5.49755C8.07228 5.48215 8.0109 5.46856 7.9608 5.45607L7.52374 7.20871C7.56501 7.219 7.61342 7.23192 7.66768 7.2464Z" fill="white"/>
</g>
<defs>
<clipPath id="clip0_940_6416">
<rect width="16" height="16" fill="white"/>
</clipPath>
</defs>
</svg>
