<svg width="16" height="16" viewBox="0 0 16 16" fill="none" xmlns="http://www.w3.org/2000/svg">
<g clip-path="url(#clip0_940_6419)">
<path d="M8 16C12.4183 16 16 12.4183 16 8C16 3.58172 12.4183 0 8 0C3.58172 0 0 3.58172 0 8C0 12.4183 3.58172 16 8 16Z" fill="#EDF0F4"/>
<path d="M7.9777 3.2002L7.91406 3.41637V9.6886L7.9777 9.75209L10.8891 8.0311L7.9777 3.2002Z" fill="#343434"/>
<path d="M7.97793 3.2002L5.06641 8.0311L7.97793 9.75209V6.70772V3.2002Z" fill="#8C8C8C"/>
<path d="M7.98118 10.3031L7.94531 10.3468V12.5811L7.98118 12.6858L10.8944 8.58301L7.98118 10.3031Z" fill="#3C3C3B"/>
<path d="M7.97793 12.6858V10.3031L5.06641 8.58301L7.97793 12.6858Z" fill="#8C8C8C"/>
<path d="M7.97656 9.75238L10.888 8.03139L7.97656 6.70801V9.75238Z" fill="#141414"/>
<path d="M5.06641 8.03139L7.97793 9.75238V6.70801L5.06641 8.03139Z" fill="#393939"/>
</g>
<defs>
<clipPath id="clip0_940_6419">
<rect width="16" height="16" fill="white"/>
</clipPath>
</defs>
</svg>
