<svg width="14" height="14" viewBox="0 0 14 14" fill="none" xmlns="http://www.w3.org/2000/svg">
<path fill-rule="evenodd" clip-rule="evenodd" d="M6.89842 10.5L12.2476 0H13.9973C13.9973 0 9.45342 10.0275 8.02396 13.3057L8.02104 13.3131C7.92868 13.5178 7.7792 13.6915 7.59054 13.8134C7.40188 13.9352 7.18206 14 6.95748 14H2.94327L3.90023 11.1532H5.86679C6.31742 11.1471 6.70636 10.8854 6.89842 10.5ZM0.0384188 13.2182L0.580919 11.8707H0.581356L0.583981 11.8628C0.671988 11.6497 0.821193 11.4674 1.01275 11.339C1.20431 11.2105 1.42962 11.1418 1.66023 11.1414H2.69856L1.74773 13.9996H0.581065C0.487944 13.9986 0.396413 13.9753 0.314124 13.9317C0.231836 13.8881 0.161183 13.8254 0.108072 13.7489C0.0549617 13.6724 0.0209377 13.5843 0.00884516 13.492C-0.00324735 13.3997 0.00694318 13.3058 0.0385646 13.2182M1.51425 8.30667C2.24342 8.77917 3.84729 8.93667 5.10175 8.66848C5.94175 8.48779 6.41425 8.16667 6.41425 7.81667V6.7725C6.10654 6.9265 5.74954 7.05119 5.37548 7.12906L5.34661 7.13431C4.89073 7.2345 4.36661 7.29181 3.82994 7.29181H3.78911C2.8867 7.30793 1.9914 7.12952 1.16411 6.76871V6.76725L1.12386 6.75106L1.16411 6.76871V7.81725C1.17525 7.92148 1.21297 8.02111 1.27363 8.1066C1.3343 8.19208 1.4159 8.26057 1.51061 8.3055L1.51411 8.30725L1.51425 8.30667ZM3.7894 6.125C5.23271 6.125 6.40259 5.68356 6.40259 5.13917C6.40259 4.59506 5.23256 4.15363 3.78925 4.15363C2.34594 4.15363 1.1765 4.59506 1.1765 5.13917C1.1765 5.68327 2.34594 6.125 3.7894 6.125Z" fill="#A3A3A3"/>
</svg>
