<svg width="14" height="14" viewBox="0 0 14 14" fill="none" xmlns="http://www.w3.org/2000/svg">
<path d="M0 0.776266V2.33377H1.5575V13.2245H2.91681C3.087 12.5415 3.69469 12.0436 4.41875 12.0436C4.76334 12.0437 5.09803 12.1588 5.36973 12.3708C5.64143 12.5827 5.83457 12.8793 5.9185 13.2135L5.92069 13.224H8.1025C8.27269 12.5411 8.88038 12.0432 9.60444 12.0432C9.94902 12.0433 10.2837 12.1584 10.5554 12.3703C10.8271 12.5823 11.0203 12.8789 11.1042 13.2131L11.1064 13.2236H12.4539V2.33289H13.9996V0.775391L0 0.776266ZM7.77569 8.94308H3.89069V7.77627H7.77569V8.94308ZM10.1093 5.83377H3.89113V4.66695H10.1093V5.83377Z" fill="#A3A3A3"/>
</svg>
