<svg width="18" height="18" viewBox="0 0 18 18" fill="none" xmlns="http://www.w3.org/2000/svg">
<path d="M15.4206 0.75H2.58724C1.56974 0.75 0.753906 1.56583 0.753906 2.58333V6.25H2.58724V2.58333H15.4206V15.4167H2.58724V11.75H0.753906V15.4167C0.753906 15.9029 0.94706 16.3692 1.29088 16.713C1.63469 17.0568 2.10101 17.25 2.58724 17.25H15.4206C15.9068 17.25 16.3731 17.0568 16.7169 16.713C17.0608 16.3692 17.2539 15.9029 17.2539 15.4167V2.58333C17.2539 1.56583 16.4289 0.75 15.4206 0.75ZM7.24391 12.2817L8.54557 13.5833L13.1289 9L8.54557 4.41667L7.24391 5.70917L9.61807 8.08333H0.753906V9.91667H9.61807L7.24391 12.2817Z" fill="#CF202E"/>
</svg>
