<svg width="14" height="14" viewBox="0 0 14 14" fill="none" xmlns="http://www.w3.org/2000/svg">
<path d="M9.99862 2.00069L7.99794 0C7.86746 0.131832 7.71209 0.236424 7.54085 0.307698C7.36961 0.378973 7.18592 0.415511 7.00044 0.415188C6.81496 0.415511 6.63126 0.378973 6.46002 0.307698C6.28878 0.236424 6.13341 0.131832 6.00294 0L0.0004375 6.0025C0.132191 6.13301 0.236701 6.2884 0.3079 6.45963C0.379099 6.63087 0.415568 6.81455 0.415188 7C0.415511 7.18548 0.378973 7.36918 0.307698 7.54042C0.236424 7.71166 0.131832 7.86703 0 7.9975L2.00069 9.99819C2.27139 9.76025 2.62256 9.63435 2.98278 9.64608C3.343 9.65781 3.68523 9.80629 3.93988 10.0613C4.19454 10.3164 4.3425 10.6588 4.35367 11.0191C4.36485 11.3793 4.23841 11.7303 4.00006 12.0006L4.00159 11.9993L6.00228 14C6.13278 13.8681 6.28819 13.7635 6.45947 13.6923C6.63074 13.621 6.81448 13.5845 7 13.5848C7.39003 13.5848 7.74288 13.7436 7.9975 14L14 7.9975C13.8681 7.86704 13.7635 7.71168 13.6922 7.54044C13.6209 7.3692 13.5843 7.1855 13.5846 7C13.5846 6.61019 13.7436 6.25712 13.9998 6.0025L11.9991 4.00181C11.7284 4.23975 11.3772 4.36565 11.017 4.35392C10.6568 4.34219 10.3146 4.19371 10.0599 3.93867C9.80524 3.68362 9.65728 3.34116 9.64611 2.98093C9.63493 2.62069 9.76137 2.26972 9.99972 1.99938L9.99862 2.00069ZM6.12544 8.8725L5.37294 9.625L4.37544 8.6275L5.12794 7.875L6.12544 8.8725ZM7.87544 7.1225L7.12294 7.875L6.12544 6.8775L6.87794 6.125L7.87544 7.1225ZM9.62544 5.3725L8.87294 6.125L7.87544 5.1275L8.62794 4.375L9.62544 5.3725Z" fill="#A3A3A3"/>
</svg>
