<svg width="14" height="14" viewBox="0 0 14 14" fill="none" xmlns="http://www.w3.org/2000/svg">
<path d="M3.52953 13.9991L0 10.4993C0.119595 10.3872 0.214861 10.2516 0.279886 10.1011C0.344911 9.95059 0.378306 9.78831 0.378 9.62434C0.378171 9.46056 0.344776 9.29847 0.279876 9.14809C0.214976 8.99771 0.119948 8.86223 0.00065625 8.75L0.00021875 8.74956L8.75 0C8.86217 0.119595 8.99772 0.214861 9.14824 0.279886C9.29876 0.344911 9.46104 0.378306 9.625 0.378C9.78877 0.378113 9.95082 0.344669 10.1012 0.279732C10.2515 0.214795 10.3869 0.119742 10.4991 0.0004375L10.4998 0L13.9998 3.52909C13.8847 3.6409 13.7933 3.77469 13.731 3.92253C13.6687 4.07037 13.6368 4.22923 13.6371 4.38966C13.6368 4.55 13.6687 4.70876 13.731 4.85652C13.7933 5.00428 13.8846 5.13801 13.9996 5.24978L14 5.25L5.25044 13.9996C5.13856 13.8846 5.00475 13.7933 4.85693 13.731C4.70911 13.6687 4.55029 13.6367 4.38988 13.6369C4.22956 13.6366 4.07082 13.6686 3.9231 13.7309C3.77539 13.7932 3.64169 13.8846 3.52997 13.9996L3.52931 14L3.52953 13.9991Z" fill="white"/>
</svg>
