<svg width="14" height="14" viewBox="0 0 14 14" fill="none" xmlns="http://www.w3.org/2000/svg">
<path d="M5.48972 1.11321C6.21766 0.576652 6.58163 0.308374 7 0.308374C7.41837 0.308374 7.78234 0.576652 8.51028 1.11321L9.60541 1.92041C9.72009 2.00493 9.77742 2.0472 9.83898 2.08274C9.90054 2.11828 9.96581 2.1468 10.0964 2.20385L11.343 2.74866C12.1716 3.1108 12.5859 3.29187 12.7951 3.65419C13.0043 4.01651 12.954 4.46585 12.8533 5.36455L12.7018 6.71655C12.6859 6.85813 12.678 6.92892 12.678 7C12.678 7.07108 12.6859 7.14187 12.7018 7.28345L12.8533 8.63545C12.954 9.53415 13.0043 9.98349 12.7951 10.3458C12.5859 10.7081 12.1716 10.8892 11.343 11.2513L10.0964 11.7961C9.96581 11.8532 9.90054 11.8817 9.83898 11.9173C9.77742 11.9528 9.72009 11.9951 9.60541 12.0796L8.51028 12.8868C7.78234 13.4233 7.41837 13.6916 7 13.6916C6.58163 13.6916 6.21766 13.4233 5.48972 12.8868L4.39459 12.0796C4.27991 11.9951 4.22258 11.9528 4.16102 11.9173C4.09946 11.8817 4.03419 11.8532 3.90365 11.7961L2.65703 11.2513C1.82839 10.8892 1.41407 10.7081 1.20488 10.3458C0.995697 9.98349 1.04605 9.53415 1.14675 8.63545L1.29824 7.28345C1.3141 7.14187 1.32204 7.07108 1.32204 7C1.32204 6.92892 1.3141 6.85813 1.29824 6.71655L1.14675 5.36455C1.04605 4.46585 0.995697 4.01651 1.20488 3.65419C1.41407 3.29187 1.82839 3.1108 2.65703 2.74866L3.90365 2.20385C4.03419 2.1468 4.09946 2.11828 4.16102 2.08274C4.22258 2.0472 4.27991 2.00493 4.39459 1.92041L5.48972 1.11321Z" fill="white"/>
<circle cx="6.99858" cy="6.99956" r="2.54545" fill="#1C1F22"/>
</svg>
