<svg width="14" height="14" viewBox="0 0 14 14" fill="none" xmlns="http://www.w3.org/2000/svg">
<g clip-path="url(#clip0_738_3118)">
<path d="M13.4033 4.96035L12.1966 3.75367C12.0993 3.65762 11.9695 3.60154 11.8328 3.59648C11.6961 3.59142 11.5625 3.63774 11.4583 3.72632C11.2975 3.86324 11.0911 3.93473 10.88 3.92663C10.6689 3.91853 10.4685 3.83142 10.3187 3.68257C10.1699 3.5327 10.0828 3.33241 10.0747 3.12139C10.0666 2.91037 10.1381 2.704 10.2749 2.54316C10.3635 2.43897 10.4098 2.30537 10.4047 2.1687C10.3997 2.03204 10.3436 1.90223 10.2476 1.80488L9.03979 0.596831C8.93772 0.494959 8.79941 0.437744 8.6552 0.437744C8.51099 0.437744 8.37268 0.494959 8.27061 0.596831L6.34698 2.52019C6.22821 2.63938 6.13865 2.78444 6.0853 2.94402C6.07491 2.9747 6.05759 3.00257 6.03469 3.02548C6.01178 3.04838 5.98391 3.0657 5.95323 3.07609C5.79359 3.12944 5.6485 3.21911 5.5294 3.33804L0.596586 8.27085C0.494715 8.37292 0.4375 8.51124 0.4375 8.65544C0.4375 8.79965 0.494715 8.93797 0.596586 9.04003L1.80463 10.2467C1.90199 10.3428 2.0318 10.3988 2.16846 10.4039C2.30512 10.409 2.43872 10.3626 2.54291 10.2741C2.70339 10.136 2.9101 10.0637 3.12162 10.0717C3.33314 10.0796 3.53385 10.1672 3.68352 10.3169C3.8332 10.4666 3.92078 10.6673 3.92872 10.8788C3.93666 11.0903 3.86438 11.297 3.72635 11.4575C3.63777 11.5617 3.59145 11.6953 3.59651 11.8319C3.60157 11.9686 3.65765 12.0984 3.7537 12.1958L4.96038 13.4025C5.06244 13.5043 5.20076 13.5615 5.34496 13.5615C5.48917 13.5615 5.62749 13.5043 5.72955 13.4025L10.6624 8.46964C10.7812 8.35059 10.8709 8.20561 10.9243 8.04609C10.9347 8.01531 10.952 7.98734 10.975 7.96438C10.9979 7.94142 11.0259 7.92409 11.0567 7.91374C11.2162 7.86038 11.3611 7.77082 11.4802 7.65206L13.4036 5.72843C13.5051 5.62637 13.562 5.48827 13.562 5.34433C13.5619 5.20039 13.5049 5.06233 13.4033 4.96035ZM7.15881 4.1496C7.11819 4.19024 7.06995 4.22247 7.01686 4.24447C6.96378 4.26646 6.90688 4.27778 6.84942 4.27778C6.79196 4.27778 6.73506 4.26646 6.68197 4.24447C6.62888 4.22247 6.58065 4.19024 6.54002 4.1496L6.2253 3.83488C6.14525 3.75242 6.10086 3.64177 6.10172 3.52685C6.10259 3.41193 6.14864 3.30196 6.22992 3.22071C6.3112 3.13947 6.42119 3.09347 6.53611 3.09265C6.65103 3.09184 6.76166 3.13628 6.84409 3.21636L7.15881 3.53081C7.19945 3.57144 7.23168 3.61968 7.25368 3.67276C7.27567 3.72585 7.28699 3.78275 7.28699 3.84021C7.28699 3.89767 7.27567 3.95457 7.25368 4.00766C7.23168 4.06074 7.19945 4.10898 7.15881 4.1496ZM8.36194 5.35273C8.2799 5.43471 8.16866 5.48077 8.05268 5.48077C7.9367 5.48077 7.82546 5.43471 7.74342 5.35273L7.44264 5.05195C7.40201 5.01132 7.36978 4.96308 7.34779 4.91C7.3258 4.85691 7.31449 4.80001 7.31449 4.74255C7.31449 4.68509 7.3258 4.6282 7.34779 4.57511C7.36978 4.52202 7.40201 4.47379 7.44264 4.43316C7.5247 4.3511 7.63599 4.305 7.75204 4.305C7.80949 4.305 7.86639 4.31632 7.91948 4.33831C7.97256 4.3603 8.0208 4.39253 8.06143 4.43316L8.36221 4.73394C8.40299 4.77456 8.43535 4.82283 8.45744 4.87599C8.47953 4.92914 8.49091 4.98613 8.49093 5.04369C8.49096 5.10125 8.47963 5.15825 8.45759 5.21142C8.43554 5.26459 8.40323 5.31289 8.36248 5.35355L8.36194 5.35273ZM9.56506 6.55585C9.52444 6.59649 9.4762 6.62872 9.42311 6.65072C9.37003 6.67271 9.31313 6.68403 9.25567 6.68403C9.19821 6.68403 9.14131 6.67271 9.08822 6.65072C9.03513 6.62872 8.9869 6.59649 8.94627 6.55585L8.64549 6.25507C8.56544 6.17261 8.52105 6.06196 8.52192 5.94704C8.52278 5.83212 8.56883 5.72216 8.65012 5.64091C8.7314 5.55966 8.84138 5.51366 8.95631 5.51285C9.07123 5.51203 9.18186 5.55647 9.26428 5.63656L9.56506 5.93734C9.60595 5.97789 9.63843 6.02613 9.66064 6.07926C9.68285 6.1324 9.69434 6.1894 9.69447 6.247C9.6946 6.30459 9.68335 6.36164 9.66138 6.41487C9.63941 6.46811 9.60714 6.51648 9.56643 6.55722L9.56506 6.55585ZM10.7799 7.77374C10.7393 7.81438 10.6911 7.84662 10.638 7.86861C10.5849 7.8906 10.528 7.90192 10.4706 7.90192C10.4131 7.90192 10.3562 7.8906 10.3031 7.86861C10.25 7.84662 10.2018 7.81438 10.1612 7.77374L9.84834 7.45929C9.80686 7.41878 9.77383 7.37043 9.75119 7.31705C9.72856 7.26367 9.71676 7.20632 9.71648 7.14834C9.7162 7.09035 9.72745 7.03289 9.74958 6.9793C9.77171 6.9257 9.80427 6.87704 9.84537 6.83614C9.88647 6.79524 9.93529 6.76291 9.98899 6.74105C10.0427 6.71918 10.1002 6.70821 10.1582 6.70877C10.2162 6.70933 10.2735 6.72141 10.3267 6.7443C10.38 6.7672 10.4282 6.80046 10.4685 6.84214L10.7816 7.15632C10.8222 7.19697 10.8544 7.24521 10.8764 7.29831C10.8984 7.35141 10.9096 7.40831 10.9096 7.46577C10.9096 7.52323 10.8983 7.58013 10.8762 7.63321C10.8542 7.68628 10.822 7.7345 10.7813 7.77511L10.7799 7.77374Z" fill="#A3A3A3"/>
</g>
<defs>
<clipPath id="clip0_738_3118">
<rect width="14" height="14" fill="white"/>
</clipPath>
</defs>
</svg>
