<svg width="14" height="14" viewBox="0 0 14 14" fill="none" xmlns="http://www.w3.org/2000/svg">
<path d="M7.0013 7L10.5744 9.43214C10.8936 9.64939 11.0846 10.0105 11.0846 10.3966V11.9583C11.0846 12.1194 10.9541 12.25 10.793 12.25H3.20964C3.04855 12.25 2.91797 12.1194 2.91797 11.9583V10.3966C2.91797 10.0105 3.10899 9.64939 3.42816 9.43214L7.0013 7ZM7.0013 7L10.5744 4.56786C10.8936 4.35061 11.0846 3.98952 11.0846 3.60342V2.04167C11.0846 1.88058 10.9541 1.75 10.793 1.75H3.20964C3.04855 1.75 2.91797 1.88058 2.91797 2.04167V3.60342C2.91797 3.98952 3.10899 4.35061 3.42816 4.56786L7.0013 7Z" stroke="white" stroke-width="1.16667" stroke-linecap="round" stroke-linejoin="round"/>
<path d="M11.0801 10.208V12.833H2.91406V10.208L6.99707 7.58301L11.0801 10.208ZM7.24414 9.48828C7.09283 9.39372 6.90131 9.39372 6.75 9.48828L4.80078 10.7061C4.71559 10.7593 4.66413 10.8527 4.66406 10.9531V12.1621C4.66406 12.2103 4.70277 12.2499 4.75098 12.25H9.24316C9.29137 12.2499 9.33008 12.2103 9.33008 12.1621V10.9531C9.33001 10.8527 9.27855 10.7593 9.19336 10.7061L7.24414 9.48828Z" fill="white"/>
<path d="M11.0846 4.375V1.75H2.91797V4.375L7.0013 7L11.0846 4.375Z" fill="white"/>
</svg>
