<svg width="14" height="14" viewBox="0 0 14 14" fill="none" xmlns="http://www.w3.org/2000/svg">
<path d="M2.33352 0C1.59342 0 1 0.593333 1 1.33333V12C1 12.3536 1.1405 12.6928 1.39058 12.9428C1.64066 13.1929 1.97985 13.3333 2.33352 13.3333H5.00056V12.06L6.39408 10.6667H2.33352V9.33333H7.7276L9.06112 8H2.33352V6.66667H10.3946L11.6681 5.39333V4L7.66759 0H2.33352ZM7.00083 1L10.668 4.66667H7.00083V1ZM11.7682 7.33333C11.6681 7.33333 11.5748 7.36667 11.5015 7.44L10.8214 8.12L12.2149 9.50667L12.895 8.83333C13.035 8.68667 13.035 8.44667 12.895 8.30667L12.0282 7.44C11.9549 7.36667 11.8615 7.33333 11.7682 7.33333ZM10.428 8.51333L6.33407 12.6133V14H7.72093L11.8215 9.9L10.428 8.51333Z" fill="#0F1112"/>
</svg>
