<svg width="66" height="56" viewBox="0 0 66 56" fill="none" xmlns="http://www.w3.org/2000/svg">
<path fill-rule="evenodd" clip-rule="evenodd" d="M32.5948 8C32.9728 9.0605 33.3657 9.946 33.8163 10.7974L33.7609 10.6836L35.0325 10.1122C35.1731 10.0382 35.3273 9.99367 35.4857 9.98134C35.6441 9.969 35.8033 9.98915 35.9536 10.0405C36.104 10.0919 36.2422 10.1735 36.3599 10.2802C36.4776 10.3869 36.5722 10.5165 36.6381 10.6611C36.7039 10.8057 36.7395 10.9622 36.7427 11.1211C36.7459 11.2799 36.7166 11.4377 36.6566 11.5848C36.5967 11.7319 36.5073 11.8652 36.394 11.9766C36.2807 12.088 36.1458 12.175 35.9977 12.2324L35.9898 12.235L34.9281 12.7136C35.6964 13.8686 36.4894 14.8769 37.3548 15.817L39.0348 14.1259C39.2546 13.9061 39.5526 13.7826 39.8634 13.7826C40.1742 13.7826 40.4723 13.9061 40.692 14.1259C40.9118 14.3456 41.0353 14.6437 41.0353 14.9545C41.0353 15.2653 40.9118 15.5634 40.692 15.7831L38.9654 17.4745C39.8169 18.2627 40.726 18.9863 41.6852 19.6392L41.7657 19.6909L42.267 18.5245C42.4622 18.1054 42.8795 17.8201 43.3634 17.8201C43.5662 17.82 43.7657 17.871 43.9436 17.9684C44.1214 18.0659 44.2718 18.2066 44.3808 18.3775C44.4899 18.5485 44.554 18.7442 44.5674 18.9465C44.5807 19.1489 44.5428 19.3513 44.4572 19.5351L44.4607 19.5281L43.8307 20.9045C44.6584 21.3569 45.6375 21.7909 46.6534 22.1452L46.7943 22.1881V22.0017C46.7943 14.2694 40.5264 8.00175 32.7943 8.00175L32.5948 8ZM42.8265 23.0033L42.8235 23.0092L42.7028 22.9459L42.8244 23.0042L42.8265 23.0033ZM28.2659 24.9044L29.0242 24.1586C29.2477 23.9689 29.5344 23.8702 29.8273 23.8822C30.1202 23.8943 30.3979 24.0161 30.605 24.2236C30.8121 24.4311 30.9336 24.7089 30.9451 25.0018C30.9567 25.2948 30.8576 25.5813 30.6675 25.8045L30.668 25.8027L29.9217 26.5611C30.9008 27.6169 31.7867 28.7555 32.5694 29.9642L32.6289 30.0614L34.2156 29.3497C34.355 29.2388 34.5181 29.1612 34.6922 29.1231C34.8662 29.0849 35.0467 29.0872 35.2198 29.1296C35.3929 29.1721 35.554 29.2536 35.6906 29.368C35.8273 29.4824 35.936 29.6265 36.0083 29.7894C36.0806 29.9523 36.1146 30.1296 36.1077 30.3077C36.1008 30.4858 36.0533 30.6599 35.9686 30.8167C35.884 30.9736 35.7646 31.1089 35.6195 31.2124C35.4744 31.3159 35.3075 31.3848 35.1317 31.4138L35.1244 31.415L33.748 32.0333C34.3124 33.0898 34.8278 34.3258 35.2242 35.615L35.2644 35.7673C40.9898 34.6901 45.4337 30.246 46.4977 24.6075L46.5117 24.5209C45.1332 24.0883 43.9476 23.594 42.8235 23.0092L42.2075 24.3333C42.1153 24.5379 41.9662 24.7116 41.7781 24.8337C41.5899 24.9559 41.3705 25.0213 41.1462 25.0222C40.9784 25.0216 40.8128 24.9848 40.6605 24.9143L40.6675 24.9172C40.3855 24.7888 40.166 24.5536 40.0572 24.2634C39.9484 23.9731 39.9593 23.6516 40.0874 23.3694L40.0848 23.3764L40.7965 21.7777C39.484 20.9167 38.3409 20.026 37.2752 19.0521L37.2962 19.0714L36.5378 19.8297C36.3206 20.0455 36.0273 20.1672 35.7212 20.1686H35.7142C35.4063 20.1686 35.111 20.0468 34.8925 19.83C34.7846 19.722 34.6991 19.5937 34.6409 19.4526C34.5826 19.3114 34.5528 19.1602 34.553 19.0075C34.553 18.6864 34.6825 18.3959 34.8925 18.185L35.6392 17.4264C34.615 16.2966 33.6851 15.0848 32.859 13.803L32.7925 13.6927L31.1362 14.4391C30.9864 14.5084 30.8234 14.5442 30.6584 14.5441H30.6278C30.362 14.5441 30.1041 14.4533 29.8969 14.2868C29.6897 14.1202 29.5456 13.8879 29.4885 13.6283C29.4313 13.3687 29.4645 13.0974 29.5826 12.8592C29.7007 12.6211 29.8966 12.4304 30.1378 12.3187L30.1448 12.3164L31.6265 11.6397C31.1292 10.6819 30.6698 9.55312 30.311 8.37975L30.2725 8.23333C24.5474 9.31075 20.1036 13.7546 19.0393 19.3934L19.0253 19.48C20.2981 19.8621 21.3942 20.304 22.4337 20.8295L22.4317 20.8336L22.5483 20.8879L22.4337 20.8295L23.108 19.3523C23.2071 19.1642 23.3556 19.0068 23.5376 18.897C23.7195 18.7872 23.928 18.7292 24.1405 18.7292C24.3301 18.7292 24.5167 18.7753 24.6844 18.8636C24.8521 18.952 24.9958 19.0798 25.103 19.2361C25.2102 19.3924 25.2777 19.5725 25.2996 19.7607C25.3216 19.949 25.2974 20.1397 25.229 20.3165L25.232 20.3086L24.485 22C25.8958 22.9106 27.1243 23.8608 28.2656 24.9044M28.2656 24.9044L28.286 24.9234L28.265 24.905L28.2656 24.9044ZM31.6442 32.8824C32.1523 33.8317 32.5863 34.8257 32.9801 36.0003H32.7931C25.0672 35.9927 18.8057 29.7277 18.8057 22V21.7661L18.9515 21.8127C19.867 22.1441 20.7525 22.5378 21.489 22.9333L20.9179 24.205L20.9205 24.1977C20.7924 24.4799 20.7815 24.8015 20.8903 25.0917C20.9991 25.3819 21.2186 25.6171 21.5007 25.7456L21.4937 25.743C21.6458 25.8134 21.8113 25.8502 21.979 25.8509C22.2034 25.85 22.4228 25.7846 22.6111 25.6624C22.7993 25.5403 22.9484 25.3665 23.0407 25.162L23.519 24.1006L23.6147 24.1583C24.6885 24.8555 25.706 25.6358 26.6579 26.492L24.9662 28.172C24.857 28.2805 24.7703 28.4096 24.7112 28.5518C24.652 28.694 24.6217 28.8466 24.6218 29.0006C24.6218 29.3243 24.753 29.6175 24.9662 29.8292C25.1847 30.0461 25.48 30.1678 25.7879 30.1678H25.8027C26.093 30.1679 26.3728 30.0597 26.5876 29.8645L28.3026 28.2309C29.0892 29.0805 29.8135 29.9902 30.5193 31.0309L29.3526 31.532L29.345 31.5349C29.0974 31.6421 28.8946 31.832 28.7712 32.072C28.6478 32.312 28.6114 32.5874 28.6682 32.8512C28.7251 33.1151 28.8717 33.351 29.083 33.5189C29.2943 33.6868 29.5573 33.7762 29.8272 33.772L29.8426 33.7711C30.0077 33.7714 30.1708 33.7357 30.3207 33.6667L31.6967 32.9903L31.6442 32.8824Z" fill="#A3A3A3"/>
<path d="M12.1885 44.996H18.0325V46.496H13.8925V47.912H15.9685C17.6725 47.912 18.6205 49.076 18.6205 50.456C18.6205 51.836 17.6845 53 15.9685 53H12.1885V44.996ZM15.7405 49.412H13.8925V51.5H15.7405C16.4005 51.5 16.8805 51.092 16.8805 50.456C16.8805 49.808 16.4005 49.412 15.7405 49.412ZM22.3648 53.144C20.6008 53.144 19.2688 51.956 19.2688 50.096C19.2688 48.416 20.5048 47.06 22.2688 47.06C23.9968 47.06 25.1728 48.356 25.1728 50.252V50.588H20.8648C20.9608 51.32 21.5488 51.932 22.5328 51.932C23.0248 51.932 23.7088 51.716 24.0808 51.356L24.7528 52.34C24.1768 52.868 23.2648 53.144 22.3648 53.144ZM23.6968 49.556C23.6608 49.004 23.2768 48.272 22.2688 48.272C21.3208 48.272 20.9128 48.98 20.8408 49.556H23.6968ZM27.7376 53H26.2736V47.204H27.7976V50.708L30.1856 47.204H31.7216V53H30.1976V49.364L27.7376 53ZM31.0976 45.572C30.6176 46.22 29.8616 46.628 28.9976 46.628C28.1456 46.628 27.3776 46.22 26.8856 45.572L27.5576 45.008C27.8816 45.464 28.3736 45.752 28.9976 45.752C29.5976 45.752 30.0896 45.476 30.4256 45.008L31.0976 45.572ZM35.9345 53.144C34.1465 53.144 32.8625 51.884 32.8625 50.096C32.8625 48.32 34.1465 47.06 35.9345 47.06C37.1225 47.06 37.8425 47.576 38.2265 48.104L37.2305 49.04C36.9545 48.632 36.5345 48.416 36.0065 48.416C35.0825 48.416 34.4345 49.088 34.4345 50.096C34.4345 51.104 35.0825 51.788 36.0065 51.788C36.5345 51.788 36.9545 51.548 37.2305 51.164L38.2265 52.088C37.8425 52.628 37.1225 53.144 35.9345 53.144ZM41.9108 51.788C42.8588 51.788 43.3988 51.008 43.3988 50.072C43.3988 49.196 42.8588 48.416 41.9108 48.416C40.9628 48.416 40.4348 49.196 40.4348 50.072C40.4348 51.008 40.9628 51.788 41.9108 51.788ZM41.9108 53.144C39.9788 53.144 38.8508 51.716 38.8508 49.832C38.8508 47.012 39.8708 45.752 41.8628 45.488C42.8348 45.344 43.1708 45.2 43.1708 44.996H44.7548C44.7548 46.124 43.2908 46.436 42.3428 46.556C40.9748 46.736 40.4108 47.336 40.2548 48.008C40.7228 47.396 41.4308 47.06 42.2348 47.06C43.8908 47.06 44.9708 48.476 44.9708 50.084C44.9708 51.716 43.8428 53.144 41.9108 53.144ZM47.8886 52.16C47.8886 52.676 47.4446 53.12 46.9166 53.12C46.3886 53.12 45.9566 52.676 45.9566 52.16C45.9566 51.632 46.3886 51.188 46.9166 51.188C47.4446 51.188 47.8886 51.632 47.8886 52.16ZM50.9606 52.16C50.9606 52.676 50.5166 53.12 49.9886 53.12C49.4606 53.12 49.0286 52.676 49.0286 52.16C49.0286 51.632 49.4606 51.188 49.9886 51.188C50.5166 51.188 50.9606 51.632 50.9606 52.16ZM54.0326 52.16C54.0326 52.676 53.5886 53.12 53.0606 53.12C52.5326 53.12 52.1006 52.676 52.1006 52.16C52.1006 51.632 52.5326 51.188 53.0606 51.188C53.5886 51.188 54.0326 51.632 54.0326 52.16Z" fill="#A3A3A3"/>
</svg>
