<svg width="67" height="56" viewBox="0 0 67 56" fill="none" xmlns="http://www.w3.org/2000/svg">
<path fill-rule="evenodd" clip-rule="evenodd" d="M44.6023 30.2507C45.6996 28.7531 46.4887 27.0526 46.9239 25.2477C45.3115 25.4968 43.7761 26.1068 42.4323 27.0321C43.2023 28.0699 43.9256 29.1546 44.6023 30.2507ZM37.7306 35.2653C39.7256 34.6006 41.5106 33.5045 42.9923 32.0934C42.2689 30.8804 41.4989 29.691 40.6589 28.5599C38.9906 30.344 37.9056 32.6765 37.7423 35.2653H37.7306ZM40.2739 12.828C40.2739 16.0465 39.2239 19.0203 37.4506 21.4461C38.6989 22.6355 39.8773 23.8833 40.9739 25.2127C42.8358 23.8996 45.0065 23.092 47.2739 22.8689C47.2973 22.5772 47.3206 22.2972 47.3206 21.9942C47.3206 16.6532 44.3223 12.0116 39.9239 9.65608C40.1456 10.6822 40.2739 11.7435 40.2739 12.828ZM23.2639 12.2799C27.8373 14.1337 32.0489 16.6998 35.7239 19.8717C37.1239 17.8776 37.9406 15.4518 37.9406 12.828C37.9407 11.3659 37.6758 9.91596 37.1589 8.54833C35.9339 8.19833 34.6506 8 33.3206 8C29.3656 8 25.8073 9.64442 23.2639 12.2799ZM25.5973 27.5102C23.6256 27.5102 21.7589 27.1135 20.0439 26.4141C21.8989 31.9767 27.1373 36 33.3206 36C34.0206 36 34.6973 35.93 35.3739 35.8367C35.4206 32.2915 36.8673 29.0729 39.2006 26.7171C38.1856 25.4927 37.1006 24.3383 35.9573 23.2419C33.2973 25.8891 29.6456 27.5218 25.6089 27.5218L25.5973 27.5102Z" fill="#A3A3A3"/>
<path fill-rule="evenodd" clip-rule="evenodd" d="M34.2186 21.6559C30.5149 18.4608 26.288 15.9283 21.7236 14.1694C20.207 16.3966 19.3203 19.0904 19.3203 21.9943C19.3203 22.4959 19.3553 22.9973 19.402 23.487C21.222 24.5481 23.3336 25.1664 25.597 25.1664C28.9453 25.1664 31.9903 23.8251 34.2186 21.6446V21.6559Z" fill="#A3A3A3"/>
<path d="M13.2217 44.996H19.0657V46.496H14.9257V47.912H17.0017C18.7057 47.912 19.6537 49.076 19.6537 50.456C19.6537 51.836 18.7177 53 17.0017 53H13.2217V44.996ZM16.7737 49.412H14.9257V51.5H16.7737C17.4337 51.5 17.9137 51.092 17.9137 50.456C17.9137 49.808 17.4337 49.412 16.7737 49.412ZM25.678 53H24.154V52.4C23.758 52.868 23.074 53.144 22.318 53.144C21.394 53.144 20.302 52.52 20.302 51.224C20.302 49.868 21.394 49.352 22.318 49.352C23.086 49.352 23.77 49.604 24.154 50.06V49.28C24.154 48.692 23.65 48.308 22.882 48.308C22.258 48.308 21.682 48.536 21.19 48.992L20.614 47.972C21.322 47.348 22.234 47.06 23.146 47.06C24.466 47.06 25.678 47.588 25.678 49.256V53ZM22.93 52.112C23.422 52.112 23.902 51.944 24.154 51.608V50.888C23.902 50.552 23.422 50.384 22.93 50.384C22.33 50.384 21.838 50.696 21.838 51.26C21.838 51.8 22.33 52.112 22.93 52.112ZM29.8896 53.144C28.1016 53.144 26.8176 51.884 26.8176 50.096C26.8176 48.32 28.1016 47.06 29.8896 47.06C31.0776 47.06 31.7976 47.576 32.1816 48.104L31.1856 49.04C30.9096 48.632 30.4896 48.416 29.9616 48.416C29.0376 48.416 28.3896 49.088 28.3896 50.096C28.3896 51.104 29.0376 51.788 29.9616 51.788C30.4896 51.788 30.9096 51.548 31.1856 51.164L32.1816 52.088C31.7976 52.628 31.0776 53.144 29.8896 53.144ZM38.8419 53H36.9339L35.3979 50.768L34.7019 51.512V53H33.1779V47.204H34.7019V49.784L36.8979 47.204H38.7699L36.4779 49.832L38.8419 53ZM42.2534 53.144C40.4894 53.144 39.1574 51.956 39.1574 50.096C39.1574 48.416 40.3934 47.06 42.1574 47.06C43.8854 47.06 45.0614 48.356 45.0614 50.252V50.588H40.7534C40.8494 51.32 41.4374 51.932 42.4214 51.932C42.9134 51.932 43.5974 51.716 43.9694 51.356L44.6414 52.34C44.0654 52.868 43.1534 53.144 42.2534 53.144ZM43.5854 49.556C43.5494 49.004 43.1654 48.272 42.1574 48.272C41.2094 48.272 40.8014 48.98 40.7294 49.556H43.5854ZM47.8554 52.16C47.8554 52.676 47.4114 53.12 46.8834 53.12C46.3554 53.12 45.9234 52.676 45.9234 52.16C45.9234 51.632 46.3554 51.188 46.8834 51.188C47.4114 51.188 47.8554 51.632 47.8554 52.16ZM50.9274 52.16C50.9274 52.676 50.4834 53.12 49.9554 53.12C49.4274 53.12 48.9954 52.676 48.9954 52.16C48.9954 51.632 49.4274 51.188 49.9554 51.188C50.4834 51.188 50.9274 51.632 50.9274 52.16ZM53.9994 52.16C53.9994 52.676 53.5554 53.12 53.0274 53.12C52.4994 53.12 52.0674 52.676 52.0674 52.16C52.0674 51.632 52.4994 51.188 53.0274 51.188C53.5554 51.188 53.9994 51.632 53.9994 52.16Z" fill="#A3A3A3"/>
</svg>
