<svg width="14" height="14" viewBox="0 0 14 14" fill="none" xmlns="http://www.w3.org/2000/svg">
<path d="M7.00172 -0.000244141H6.98334C3.73272 -0.000244141 1.09766 2.63482 1.09766 5.88544C1.09766 5.92438 1.09809 5.96332 1.09897 6.00226V5.99657V10.8909H4.90216V6.69657H3.11147V5.99657C3.11004 5.95371 3.10931 5.91083 3.10928 5.86794C3.10928 3.73863 4.83566 2.01226 6.96497 2.01226H7.00391H7.00172H7.03891C9.16822 2.01226 10.8946 3.73863 10.8946 5.86794C10.8946 5.91301 10.8939 5.95807 10.8924 6.00313V5.99657V6.69657H9.10172V10.8909H10.7524C10.3731 11.7952 9.15991 11.9877 7.00172 11.9877V14.0002C8.92103 14.0002 12.9049 14.0002 12.9049 10.197V5.99701C12.9058 5.96419 12.9058 5.92526 12.9058 5.88632C12.9058 2.63569 10.2707 0.000630859 7.02009 0.000630859H7.00041L7.00172 -0.000244141Z" fill="white"/>
</svg>
