<svg width="67" height="56" viewBox="0 0 67 56" fill="none" xmlns="http://www.w3.org/2000/svg">
<path d="M22.7918 12.7921C23.0368 12.5121 23.2932 12.2321 23.5618 11.976C28.3201 12.2132 32.6364 13.9325 36.1023 16.6774L36.0568 16.6424C40.0932 20.0225 43.2362 24.338 45.1656 29.2634L45.2391 29.476C45.0132 29.8446 44.7685 30.2012 44.5058 30.5444L44.5277 30.5147C42.5309 25.7092 39.5839 21.6544 35.8967 18.4248L35.8591 18.3924C32.1893 15.2881 27.6809 13.3428 22.9047 12.8029L22.7918 12.7921ZM20.9604 15.3588C26.0031 15.588 30.5627 17.485 34.1414 20.5073L34.1091 20.4802C37.7596 23.7177 40.6103 27.7759 42.3804 32.3697L42.4513 32.5779C40.0109 34.6989 36.8014 35.9913 33.2901 35.9913C25.5577 35.9913 19.2901 29.7234 19.2901 21.9913C19.2866 19.6476 19.874 17.3409 20.9981 15.2844L20.9613 15.3579L20.9604 15.3588ZM26.7932 9.60712C28.6771 8.60058 30.9144 8.00879 33.2901 8.00879C41.0224 8.00879 47.2901 14.2764 47.2901 22.0088C47.2901 23.4613 47.0687 24.863 46.6583 26.1796L46.6846 26.081C44.5347 21.433 41.4862 17.5332 37.7351 14.4602L37.6782 14.4147C34.6393 12.0207 30.9416 10.324 26.9017 9.62841L26.7582 9.608L26.7932 9.60712Z" fill="#A3A3A3"/>
<path d="M21.769 53H19.669L17.245 49.796L16.621 50.54V53H14.917V44.996H16.621V48.572L19.453 44.996H21.553L18.373 48.752L21.769 53ZM25.8219 53.144C25.1379 53.144 24.5019 52.856 24.0339 52.256V55.208H22.5099V47.204H24.0339V47.936C24.4779 47.372 25.1139 47.06 25.8219 47.06C27.3099 47.06 28.3899 48.164 28.3899 50.096C28.3899 52.028 27.3099 53.144 25.8219 53.144ZM25.3419 51.788C26.2179 51.788 26.8059 51.104 26.8059 50.096C26.8059 49.1 26.2179 48.416 25.3419 48.416C24.8499 48.416 24.2859 48.704 24.0339 49.076V51.128C24.2859 51.488 24.8499 51.788 25.3419 51.788ZM30.97 53H29.506V47.204H31.03V50.708L33.418 47.204H34.954V53H33.43V49.364L30.97 53ZM42.1309 53H40.2229L38.6869 50.768L37.9909 51.512V53H36.4669V47.204H37.9909V49.784L40.1869 47.204H42.0589L39.7669 49.832L42.1309 53ZM45.5425 53.144C43.7785 53.144 42.4465 51.956 42.4465 50.096C42.4465 48.416 43.6825 47.06 45.4465 47.06C47.1745 47.06 48.3505 48.356 48.3505 50.252V50.588H44.0425C44.1385 51.32 44.7265 51.932 45.7105 51.932C46.2025 51.932 46.8865 51.716 47.2585 51.356L47.9305 52.34C47.3545 52.868 46.4425 53.144 45.5425 53.144ZM46.8745 49.556C46.8385 49.004 46.4545 48.272 45.4465 48.272C44.4985 48.272 44.0905 48.98 44.0185 49.556H46.8745ZM52.0553 53H50.5193V48.536H48.8993V47.204H53.6753V48.536H52.0553V53Z" fill="#A3A3A3"/>
</svg>
