<svg width="121" height="16" viewBox="0 0 121 16" fill="none" xmlns="http://www.w3.org/2000/svg">
<g clip-path="url(#clip0_940_6551)">
<path d="M15.7628 9.93524C14.6944 14.2209 10.3535 16.8292 6.06726 15.7605C1.78279 14.692 -0.825432 10.351 0.243494 6.06557C1.31148 1.77935 5.65226 -0.829071 9.93719 0.239388C14.2232 1.30785 16.8312 5.64936 15.7626 9.93532L15.7628 9.93524Z" fill="#F7931A"/>
<path fill-rule="evenodd" clip-rule="evenodd" d="M11.5287 6.86023C11.6879 5.7956 10.8774 5.22332 9.76901 4.84156L10.1286 3.39943L9.25069 3.18068L8.90068 4.58484C8.66989 4.52728 8.43289 4.47306 8.19733 4.41928L8.54989 3.00586L7.67257 2.78711L7.31281 4.22878C7.12184 4.18528 6.93426 4.14231 6.75228 4.09703L6.75329 4.0925L5.54269 3.79019L5.30917 4.7278C5.30917 4.7278 5.96046 4.87711 5.94674 4.8863C6.30224 4.97502 6.36652 5.21034 6.35584 5.39687L5.94628 7.03979C5.97076 7.046 6.0025 7.055 6.03754 7.06908L6.01208 7.06272C5.99041 7.05731 5.96786 7.05166 5.94474 7.04612L5.37068 9.34763C5.32724 9.45563 5.21696 9.61771 4.96842 9.55616C4.97721 9.56891 4.33037 9.39694 4.33037 9.39694L3.89453 10.4018L5.03693 10.6866C5.16202 10.718 5.28564 10.7502 5.40801 10.7821L5.40825 10.7822C5.49369 10.8044 5.57852 10.8266 5.66281 10.8481L5.29954 12.3068L6.1764 12.5255L6.53614 11.0823C6.77569 11.1474 7.00816 11.2073 7.23574 11.2639L6.87721 12.7003L7.75512 12.919L8.11834 11.4631C9.61529 11.7464 10.7409 11.6322 11.2147 10.2782C11.5964 9.18804 11.1957 8.55927 10.4081 8.14923C10.9817 8.01694 11.4138 7.63967 11.529 6.86035L11.5287 6.86023ZM9.52293 9.67276C9.27402 10.6729 7.70852 10.2594 6.99224 10.0702C6.92781 10.0532 6.87025 10.038 6.82113 10.0258L7.3032 8.09335C7.36305 8.1083 7.43618 8.12471 7.51905 8.1433C8.25994 8.30958 9.77792 8.65024 9.52293 9.67276ZM7.66768 7.2464C8.26484 7.40578 9.56756 7.75344 9.79442 6.84443C10.0261 5.91474 8.76016 5.63444 8.14184 5.49755C8.07228 5.48215 8.0109 5.46856 7.9608 5.45607L7.52374 7.20871C7.56501 7.219 7.61342 7.23192 7.66768 7.2464Z" fill="white"/>
</g>
<g clip-path="url(#clip1_940_6551)">
<path d="M33 16C37.4183 16 41 12.4183 41 8C41 3.58172 37.4183 0 33 0C28.5817 0 25 3.58172 25 8C25 12.4183 28.5817 16 33 16Z" fill="#EDF0F4"/>
<path d="M32.9777 3.2002L32.9141 3.41637V9.6886L32.9777 9.75209L35.8891 8.0311L32.9777 3.2002Z" fill="#343434"/>
<path d="M32.9779 3.2002L30.0664 8.0311L32.9779 9.75209V6.70772V3.2002Z" fill="#8C8C8C"/>
<path d="M32.9812 10.3031L32.9453 10.3468V12.5811L32.9812 12.6858L35.8944 8.58301L32.9812 10.3031Z" fill="#3C3C3B"/>
<path d="M32.9779 12.6858V10.3031L30.0664 8.58301L32.9779 12.6858Z" fill="#8C8C8C"/>
<path d="M32.9766 9.75238L35.888 8.03139L32.9766 6.70801V9.75238Z" fill="#141414"/>
<path d="M30.0664 8.03139L32.9779 9.75238V6.70801L30.0664 8.03139Z" fill="#393939"/>
</g>
<g clip-path="url(#clip2_940_6551)">
<path d="M65.7588 9.93524C64.6904 14.2209 60.3496 16.8292 56.0634 15.7605C51.7789 14.692 49.1707 10.351 50.2396 6.06557C51.3076 1.77935 55.6483 -0.829071 59.9333 0.239388C64.2192 1.30785 66.8273 5.64928 65.7588 9.93524Z" fill="#50AF95"/>
<path fill-rule="evenodd" clip-rule="evenodd" d="M59.0139 8.9069C58.9573 8.91114 58.6651 8.92858 58.0131 8.92858C57.4946 8.92858 57.1265 8.91303 56.9973 8.9069C54.9934 8.81875 53.4977 8.46991 53.4977 8.05226C53.4977 7.63461 54.9934 7.28625 56.9973 7.19669V8.55949C57.1283 8.56891 57.5036 8.59107 58.0221 8.59107C58.6443 8.59107 58.9559 8.56514 59.012 8.55995V7.19763C61.0117 7.28673 62.5041 7.63555 62.5041 8.05226C62.5041 8.46898 61.0122 8.81781 59.012 8.90643L59.0139 8.9069ZM59.0139 7.05669V5.83718H61.8046V3.97754H54.2066V5.83718H56.9968V7.05621C54.7289 7.16039 53.0234 7.60962 53.0234 8.14795C53.0234 8.68629 54.7289 9.13506 56.9968 9.2397V13.1476H59.0134V9.23829C61.2761 9.13411 62.9788 8.68534 62.9788 8.14749C62.9788 7.60962 61.2775 7.16086 59.0134 7.05621L59.0139 7.05669Z" fill="white"/>
</g>
<path d="M103.396 12.144C101.92 12.144 100.828 11.58 100.24 10.86L101.128 9.72C101.68 10.296 102.556 10.632 103.336 10.632C104.308 10.632 104.848 10.212 104.848 9.612C104.848 8.976 104.356 8.688 103.24 8.688C102.904 8.688 102.364 8.7 102.244 8.712V7.176C102.388 7.188 102.94 7.188 103.24 7.188C104.128 7.188 104.716 6.924 104.716 6.336C104.716 5.7 104.068 5.388 103.228 5.388C102.46 5.388 101.764 5.676 101.2 6.216L100.348 5.148C100.996 4.416 102.004 3.876 103.408 3.876C105.28 3.876 106.432 4.716 106.432 6.048C106.432 7.056 105.568 7.716 104.68 7.872C105.496 7.956 106.552 8.592 106.552 9.792C106.552 11.172 105.316 12.144 103.396 12.144ZM110.763 12.144C108.471 12.144 107.451 10.068 107.451 8.004C107.451 5.94 108.471 3.876 110.763 3.876C113.043 3.876 114.075 5.94 114.075 8.004C114.075 10.068 113.043 12.144 110.763 12.144ZM110.763 10.632C111.903 10.632 112.335 9.48 112.335 8.004C112.335 6.528 111.903 5.388 110.763 5.388C109.611 5.388 109.179 6.528 109.179 8.004C109.179 9.48 109.611 10.632 110.763 10.632ZM120.184 8.424H118.036V10.86H116.992V8.424H114.832V7.476H116.992V5.136H118.036V7.476H120.184V8.424Z" fill="white"/>
<g clip-path="url(#clip3_940_6551)">
<path d="M90.7588 9.93524C89.6904 14.2209 85.3496 16.8292 81.0634 15.7605C76.7789 14.692 74.1707 10.351 75.2396 6.06557C76.3076 1.77935 80.6483 -0.829071 84.9333 0.239388C89.2192 1.30785 91.8273 5.64928 90.7588 9.93524Z" fill="#F3BA2F"/>
<path fill-rule="evenodd" clip-rule="evenodd" d="M82.9974 5.07766L80.9258 7.14921L79.7206 5.94379L82.9974 2.66699L86.2753 5.94478L85.0699 7.15011L82.9974 5.07766ZM78.8694 6.79478L77.6641 8.00033L78.8694 9.20545L80.0747 8.00007L78.8694 6.79478ZM80.9258 8.85157L82.9974 10.923L85.0699 8.85059L86.2759 10.0553L86.2753 10.0559L82.9974 13.3337L79.7206 10.0569L79.7189 10.0552L80.9258 8.85157ZM87.1254 6.79546L85.9201 8.00083L87.1254 9.20613L88.3307 8.00075L87.1254 6.79546Z" fill="white"/>
<path d="M84.2196 7.99945H84.2202L82.9972 6.77637L82.0932 7.68009L81.9893 7.78398L81.7751 7.99821L81.7734 7.99987L81.7751 8.00162L82.9972 9.22381L84.2202 8.00073L84.2208 8.00005L84.2196 7.99945Z" fill="white"/>
</g>
<defs>
<clipPath id="clip0_940_6551">
<rect width="16" height="16" fill="white"/>
</clipPath>
<clipPath id="clip1_940_6551">
<rect width="16" height="16" fill="white" transform="translate(25)"/>
</clipPath>
<clipPath id="clip2_940_6551">
<rect width="16" height="16" fill="white" transform="translate(50)"/>
</clipPath>
<clipPath id="clip3_940_6551">
<rect width="16" height="16" fill="white" transform="translate(75)"/>
</clipPath>
</defs>
</svg>
