<svg width="121" height="46" viewBox="0 0 121 46" fill="none" xmlns="http://www.w3.org/2000/svg">
<path d="M36.78 18.24C32.78 18.24 29.68 15.44 29.68 11.34C29.68 7.24 32.78 4.44 36.78 4.44C39.72 4.44 41.42 6.04 42.36 7.7L39.92 8.9C39.36 7.82 38.16 6.96 36.78 6.96C34.36 6.96 32.6 8.82 32.6 11.34C32.6 13.86 34.36 15.72 36.78 15.72C38.16 15.72 39.36 14.88 39.92 13.78L42.36 14.96C41.4 16.62 39.72 18.24 36.78 18.24ZM46.5305 18H43.9905V8.34H46.5305V9.66C47.2105 8.8 48.4105 8.1 49.6105 8.1V10.58C49.4305 10.54 49.1905 10.52 48.9105 10.52C48.0705 10.52 46.9505 11 46.5305 11.62V18ZM50.8575 21.78L51.2375 19.5C51.4575 19.6 51.7975 19.66 52.0375 19.66C52.6975 19.66 53.1375 19.48 53.3775 18.96L53.7375 18.14L49.8175 8.34H52.5375L55.0575 15.06L57.5775 8.34H60.3175L55.7775 19.58C55.0575 21.4 53.7775 21.88 52.1175 21.92C51.8175 21.92 51.1775 21.86 50.8575 21.78ZM66.9714 18.24C65.8314 18.24 64.7714 17.76 63.9914 16.76V21.68H61.4514V8.34H63.9914V9.56C64.7314 8.62 65.7914 8.1 66.9714 8.1C69.4514 8.1 71.2514 9.94 71.2514 13.16C71.2514 16.38 69.4514 18.24 66.9714 18.24ZM66.1714 15.98C67.6314 15.98 68.6114 14.84 68.6114 13.16C68.6114 11.5 67.6314 10.36 66.1714 10.36C65.3514 10.36 64.4114 10.84 63.9914 11.46V14.88C64.4114 15.48 65.3514 15.98 66.1714 15.98ZM76.3516 18.24C74.5716 18.24 73.6116 17.32 73.6116 15.6V10.56H72.0116V8.34H73.6116V5.7H76.1716V8.34H78.1316V10.56H76.1716V14.92C76.1716 15.52 76.4916 15.98 77.0516 15.98C77.4316 15.98 77.7916 15.84 77.9316 15.7L78.4716 17.62C78.0916 17.96 77.4116 18.24 76.3516 18.24ZM84.3494 18.24C81.1694 18.24 79.2494 15.92 79.2494 13.16C79.2494 10.42 81.1694 8.1 84.3494 8.1C87.5494 8.1 89.4694 10.42 89.4694 13.16C89.4694 15.92 87.5494 18.24 84.3494 18.24ZM84.3494 15.98C85.9294 15.98 86.8294 14.68 86.8294 13.16C86.8294 11.66 85.9294 10.36 84.3494 10.36C82.7694 10.36 81.8894 11.66 81.8894 13.16C81.8894 14.68 82.7694 15.98 84.3494 15.98Z" fill="white"/>
<g clip-path="url(#clip0_940_6413)">
<path d="M15.7628 39.9352C14.6944 44.2209 10.3535 46.8292 6.06726 45.7605C1.78279 44.692 -0.825432 40.351 0.243494 36.0656C1.31148 31.7793 5.65226 29.1709 9.93719 30.2394C14.2232 31.3078 16.8312 35.6494 15.7626 39.9353L15.7628 39.9352Z" fill="#F7931A"/>
<path fill-rule="evenodd" clip-rule="evenodd" d="M11.5287 36.8602C11.6879 35.7956 10.8774 35.2233 9.76901 34.8416L10.1286 33.3994L9.25069 33.1807L8.90068 34.5848C8.66989 34.5273 8.43289 34.4731 8.19733 34.4193L8.54989 33.0059L7.67257 32.7871L7.31281 34.2288C7.12184 34.1853 6.93426 34.1423 6.75228 34.097L6.75329 34.0925L5.54269 33.7902L5.30917 34.7278C5.30917 34.7278 5.96046 34.8771 5.94674 34.8863C6.30224 34.975 6.36652 35.2103 6.35584 35.3969L5.94628 37.0398C5.97076 37.046 6.0025 37.055 6.03754 37.0691L6.01208 37.0627C5.99041 37.0573 5.96786 37.0517 5.94474 37.0461L5.37068 39.3476C5.32724 39.4556 5.21696 39.6177 4.96842 39.5562C4.97721 39.5689 4.33037 39.3969 4.33037 39.3969L3.89453 40.4018L5.03693 40.6866C5.16202 40.718 5.28564 40.7502 5.40801 40.7821L5.40825 40.7822C5.49369 40.8044 5.57852 40.8266 5.66281 40.8481L5.29954 42.3068L6.1764 42.5255L6.53614 41.0823C6.77569 41.1474 7.00816 41.2073 7.23574 41.2639L6.87721 42.7003L7.75512 42.919L8.11834 41.4631C9.61529 41.7464 10.7409 41.6322 11.2147 40.2782C11.5964 39.188 11.1957 38.5593 10.4081 38.1492C10.9817 38.0169 11.4138 37.6397 11.529 36.8604L11.5287 36.8602ZM9.52293 39.6728C9.27402 40.6729 7.70852 40.2594 6.99224 40.0702C6.92781 40.0532 6.87025 40.038 6.82113 40.0258L7.3032 38.0934C7.36305 38.1083 7.43618 38.1247 7.51905 38.1433C8.25994 38.3096 9.77792 38.6502 9.52293 39.6728ZM7.66768 37.2464C8.26484 37.4058 9.56756 37.7534 9.79442 36.8444C10.0261 35.9147 8.76016 35.6344 8.14184 35.4975C8.07228 35.4821 8.0109 35.4686 7.9608 35.4561L7.52374 37.2087C7.56501 37.219 7.61342 37.2319 7.66768 37.2464Z" fill="white"/>
</g>
<g clip-path="url(#clip1_940_6413)">
<path d="M33 46C37.4183 46 41 42.4183 41 38C41 33.5817 37.4183 30 33 30C28.5817 30 25 33.5817 25 38C25 42.4183 28.5817 46 33 46Z" fill="#EDF0F4"/>
<path d="M32.9777 33.2002L32.9141 33.4164V39.6886L32.9777 39.7521L35.8891 38.0311L32.9777 33.2002Z" fill="#343434"/>
<path d="M32.9779 33.2002L30.0664 38.0311L32.9779 39.7521V36.7077V33.2002Z" fill="#8C8C8C"/>
<path d="M32.9812 40.3031L32.9453 40.3468V42.5811L32.9812 42.6858L35.8944 38.583L32.9812 40.3031Z" fill="#3C3C3B"/>
<path d="M32.9779 42.6858V40.3031L30.0664 38.583L32.9779 42.6858Z" fill="#8C8C8C"/>
<path d="M32.9766 39.7524L35.888 38.0314L32.9766 36.708V39.7524Z" fill="#141414"/>
<path d="M30.0664 38.0314L32.9779 39.7524V36.708L30.0664 38.0314Z" fill="#393939"/>
</g>
<g clip-path="url(#clip2_940_6413)">
<path d="M65.7588 39.9352C64.6904 44.2209 60.3496 46.8292 56.0634 45.7605C51.7789 44.692 49.1707 40.351 50.2396 36.0656C51.3076 31.7793 55.6483 29.1709 59.9333 30.2394C64.2192 31.3078 66.8273 35.6493 65.7588 39.9352Z" fill="#50AF95"/>
<path fill-rule="evenodd" clip-rule="evenodd" d="M59.0139 38.9069C58.9573 38.9111 58.6651 38.9286 58.0131 38.9286C57.4946 38.9286 57.1265 38.913 56.9973 38.9069C54.9934 38.8188 53.4977 38.4699 53.4977 38.0523C53.4977 37.6346 54.9934 37.2862 56.9973 37.1967V38.5595C57.1283 38.5689 57.5036 38.5911 58.0221 38.5911C58.6443 38.5911 58.9559 38.5651 59.012 38.56V37.1976C61.0117 37.2867 62.5041 37.6356 62.5041 38.0523C62.5041 38.469 61.0122 38.8178 59.012 38.9064L59.0139 38.9069ZM59.0139 37.0567V35.8372H61.8046V33.9775H54.2066V35.8372H56.9968V37.0562C54.7289 37.1604 53.0234 37.6096 53.0234 38.148C53.0234 38.6863 54.7289 39.1351 56.9968 39.2397V43.1476H59.0134V39.2383C61.2761 39.1341 62.9788 38.6853 62.9788 38.1475C62.9788 37.6096 61.2775 37.1609 59.0134 37.0562L59.0139 37.0567Z" fill="white"/>
</g>
<path d="M103.396 42.144C101.92 42.144 100.828 41.58 100.24 40.86L101.128 39.72C101.68 40.296 102.556 40.632 103.336 40.632C104.308 40.632 104.848 40.212 104.848 39.612C104.848 38.976 104.356 38.688 103.24 38.688C102.904 38.688 102.364 38.7 102.244 38.712V37.176C102.388 37.188 102.94 37.188 103.24 37.188C104.128 37.188 104.716 36.924 104.716 36.336C104.716 35.7 104.068 35.388 103.228 35.388C102.46 35.388 101.764 35.676 101.2 36.216L100.348 35.148C100.996 34.416 102.004 33.876 103.408 33.876C105.28 33.876 106.432 34.716 106.432 36.048C106.432 37.056 105.568 37.716 104.68 37.872C105.496 37.956 106.552 38.592 106.552 39.792C106.552 41.172 105.316 42.144 103.396 42.144ZM110.763 42.144C108.471 42.144 107.451 40.068 107.451 38.004C107.451 35.94 108.471 33.876 110.763 33.876C113.043 33.876 114.075 35.94 114.075 38.004C114.075 40.068 113.043 42.144 110.763 42.144ZM110.763 40.632C111.903 40.632 112.335 39.48 112.335 38.004C112.335 36.528 111.903 35.388 110.763 35.388C109.611 35.388 109.179 36.528 109.179 38.004C109.179 39.48 109.611 40.632 110.763 40.632ZM120.184 38.424H118.036V40.86H116.992V38.424H114.832V37.476H116.992V35.136H118.036V37.476H120.184V38.424Z" fill="white"/>
<g clip-path="url(#clip3_940_6413)">
<path d="M90.7588 39.9352C89.6904 44.2209 85.3496 46.8292 81.0634 45.7605C76.7789 44.692 74.1707 40.351 75.2396 36.0656C76.3076 31.7793 80.6483 29.1709 84.9333 30.2394C89.2192 31.3078 91.8273 35.6493 90.7588 39.9352Z" fill="#F3BA2F"/>
<path fill-rule="evenodd" clip-rule="evenodd" d="M82.9974 35.0777L80.9258 37.1492L79.7206 35.9438L82.9974 32.667L86.2753 35.9448L85.0699 37.1501L82.9974 35.0777ZM78.8694 36.7948L77.6641 38.0003L78.8694 39.2054L80.0747 38.0001L78.8694 36.7948ZM80.9258 38.8516L82.9974 40.923L85.0699 38.8506L86.2759 40.0553L86.2753 40.0559L82.9974 43.3337L79.7206 40.0569L79.7189 40.0552L80.9258 38.8516ZM87.1254 36.7955L85.9201 38.0008L87.1254 39.2061L88.3307 38.0008L87.1254 36.7955Z" fill="white"/>
<path d="M84.2196 37.9994H84.2202L82.9972 36.7764L82.0932 37.6801L81.9893 37.784L81.7751 37.9982L81.7734 37.9999L81.7751 38.0016L82.9972 39.2238L84.2202 38.0007L84.2208 38L84.2196 37.9994Z" fill="white"/>
</g>
<defs>
<clipPath id="clip0_940_6413">
<rect width="16" height="16" fill="white" transform="translate(0 30)"/>
</clipPath>
<clipPath id="clip1_940_6413">
<rect width="16" height="16" fill="white" transform="translate(25 30)"/>
</clipPath>
<clipPath id="clip2_940_6413">
<rect width="16" height="16" fill="white" transform="translate(50 30)"/>
</clipPath>
<clipPath id="clip3_940_6413">
<rect width="16" height="16" fill="white" transform="translate(75 30)"/>
</clipPath>
</defs>
</svg>
