<svg width="66" height="56" viewBox="0 0 66 56" fill="none" xmlns="http://www.w3.org/2000/svg">
<path d="M30.4825 8H31.2312C31.7971 8.23129 32.2842 8.50283 32.7333 8.82512L32.7114 8.81025C32.8558 9.42304 33.1096 10.0796 32.8908 10.7105C32.6983 10.8516 32.4767 10.97 32.2392 11.0546L32.2209 11.0608C32.2471 11.3017 32.2865 11.5426 32.3259 11.7835C32.7785 11.7266 33.2276 11.645 33.6713 11.5391L33.587 11.5557C33.6177 11.2815 33.7002 11.0327 33.8244 10.8105L33.8192 10.8201C33.8542 10.9907 33.8804 11.1614 33.9023 11.3323C34.0977 11.4971 34.3474 11.603 34.6213 11.6213H39.9104C40.1075 11.6213 40.1991 11.8097 40.3482 11.9147V10.7942H40.5541C40.5381 11.1332 40.5615 11.4729 40.6241 11.8065L40.6197 11.7794C40.7046 11.7987 40.8081 11.8135 40.9131 11.8223L40.9219 11.8232V12.2085C41.4768 12.2511 42.0347 12.2364 42.5867 12.1647L42.5464 12.1691C42.9175 12.1412 43.2902 12.1418 43.6612 12.1708L43.637 12.1691C43.6449 12.3126 43.6589 12.4459 43.679 12.5762L43.6761 12.5544C43.4739 12.5797 43.2392 12.5938 43.002 12.5938C42.7644 12.5938 42.5302 12.5798 42.2994 12.5517L42.3277 12.5547C41.6093 12.4669 40.8956 12.62 40.1775 12.5809C40.1775 12.6772 40.1294 12.7734 40.1075 12.8697H38.0446C37.9297 12.8571 37.8134 12.8719 37.7054 12.9128C37.5973 12.9538 37.5004 13.0198 37.4227 13.1053L37.4219 13.1062C37.2162 13.36 36.9841 13.5746 36.7782 13.833V13.8925C36.7782 14.3691 36.8613 14.8253 37.0156 15.2482L37.0068 15.2202L36.525 15.3955C36.3587 15.908 36.4244 16.5648 35.9559 16.9238C35.7219 17.1373 35.4662 17.3258 35.1929 17.4862L35.1719 17.4972C34.9484 17.5496 34.7145 17.5364 34.4982 17.4593L34.5072 17.4622C33.7017 17.3398 33.0314 16.8448 32.3177 16.4989C32.2692 16.6937 32.2182 16.8879 32.1646 17.0813C32.3833 17.226 32.668 17.3441 32.7383 17.6244C32.7698 17.8125 32.7873 18.0298 32.7873 18.2506C32.7873 18.4717 32.7698 18.688 32.7348 18.8996L32.7383 18.8768C32.7033 19.2577 32.6945 19.6387 32.6549 20.0196C32.5921 20.383 32.4293 20.7218 32.1847 20.9978L32.1864 20.9961C31.9805 20.948 31.7793 20.8867 31.5777 20.8342C31.519 20.9822 31.4891 21.1399 31.4894 21.2991C31.4894 21.6695 31.6477 22.0026 31.9009 22.2345L31.9018 22.2354C32.8389 23.2556 33.347 24.5696 33.8242 25.8482C33.9073 26.1195 34.1832 26.2857 34.2313 26.5663C34.3322 26.8393 34.3917 27.1555 34.3935 27.4851V27.4857C34.3585 28.0419 34.3191 28.5981 34.2622 29.154C34.1752 29.545 34.1475 29.9468 34.18 30.346L34.1788 30.332C34.2744 30.67 34.2735 31.028 34.1762 31.3654L34.1797 31.3526C34.063 31.7005 34.0041 32.0653 34.0056 32.4323C34.0056 32.5146 34.0085 32.5961 34.0143 32.6768L34.0134 32.6662C33.987 32.9631 34.0672 33.2596 34.2395 33.5028L34.2366 33.499C34.462 33.7983 34.7117 34.0787 34.9829 34.3372L34.9856 34.3398C35.3356 34.5673 35.8174 34.572 36.1064 34.9004C36.1283 34.9888 36.1406 35.0894 36.1406 35.1935C36.1406 35.298 36.1286 35.3987 36.1047 35.4957L36.1064 35.487C35.7807 35.5502 35.4067 35.5861 35.0241 35.5861C34.4483 35.5863 33.8756 35.5037 33.3234 35.3408L33.3654 35.3513C32.866 35.1892 32.3142 35.4695 31.8414 35.1938C31.8744 34.6117 32.0016 34.0387 32.2179 33.4972L32.2048 33.534C32.2248 33.3581 32.2347 33.1813 32.2346 33.0043C32.2346 32.4078 32.1243 31.8376 31.9219 31.312L31.9324 31.3444C31.7662 30.692 31.6635 29.9397 31.6477 29.1657V29.1552C31.604 28.7917 31.9105 28.5202 31.9237 28.1655C31.9414 28.0868 31.9502 28.0062 31.9499 27.9255C31.9503 27.6963 31.8789 27.4727 31.7457 27.2862L31.7487 27.2897C31.4068 27.2897 30.9515 27.3684 30.7631 27.005C30.3647 26.4182 29.9838 25.8226 29.5854 25.2535C29.4497 24.9995 29.1167 25.0564 28.8935 24.947C28.7102 24.7505 28.5636 24.5227 28.4607 24.2744L28.4554 24.2595C28.3902 24.5198 28.2635 24.7607 28.0859 24.9619L28.0877 24.9601C27.8152 25.2966 27.6143 25.6851 27.4973 26.102L27.4921 26.1247C27.3699 26.4061 27.283 26.7015 27.2331 27.0041L27.2296 27.0269C27.1858 27.2631 27.1771 27.5393 26.9624 27.6925C26.6515 27.9287 26.5243 28.3274 26.2572 28.5683C26.0556 28.7733 25.9152 29.0305 25.8517 29.3109L25.85 29.3214C25.8587 29.4346 25.8631 29.5667 25.8631 29.7006C25.8631 29.8345 25.8587 29.966 25.8491 30.0972L25.85 30.0798C25.6942 30.5404 25.5014 30.9877 25.2737 31.4173L25.2984 31.3675C25.1672 31.6693 25.0969 31.9937 24.9525 32.2915C24.8604 32.4971 24.6151 32.5627 24.4794 32.729C24.1954 33.2235 24.0471 33.7844 24.0495 34.3547C24.0495 34.5711 24.0705 34.7829 24.1099 34.9876L24.1064 34.9669C24.1968 35.1673 24.2493 35.4015 24.2493 35.6474C24.2493 35.7392 24.2422 35.8294 24.228 35.918L24.2289 35.9084C23.988 35.939 23.7517 35.9784 23.5108 36.0003H22.7665C22.5654 35.9726 22.3692 35.9164 22.184 35.8332L22.1972 35.8381C22.1343 35.6318 22.1027 35.4171 22.1035 35.2014C22.1035 34.9748 22.1377 34.7552 22.2015 34.5492L22.1972 34.5647C22.3722 33.9432 22.5299 33.317 22.6874 32.6951C22.7924 32.3886 22.5387 32.1127 22.5649 31.8193C22.5964 31.3835 22.7496 30.9653 23.0071 30.6123L23.0027 30.6193C23.1912 30.2822 23.1252 29.8794 23.2568 29.5291C23.5546 28.7585 24.1327 28.1367 24.4523 27.3877C24.4945 27.0688 24.4939 26.7457 24.4506 26.4269L24.4523 26.4453C24.5013 25.7893 24.5879 25.1902 24.7134 24.6055L24.6976 24.6938C24.7265 24.5903 24.7431 24.4722 24.7431 24.3505C24.7431 24.2289 24.7265 24.1096 24.695 23.9976L24.6976 24.0072C24.591 23.7427 24.5506 23.4562 24.5801 23.1725L24.5792 23.1795C24.6142 22.917 24.4611 22.6586 24.5792 22.4045C24.6976 22.1505 24.8289 22.0674 24.9867 21.9358C25.0173 21.0602 24.6932 20.1844 24.8292 19.3085C25.0068 19.1414 25.2264 19.0168 25.4708 18.9521L25.4813 18.9495L24.5354 18.7482C24.5346 18.722 24.5346 18.691 24.5346 18.6607C24.5346 18.3154 24.5748 17.9808 24.6512 17.6594L24.6451 17.6892C24.7632 17.1461 24.6976 16.5814 24.7851 16.034C24.7851 15.894 24.9514 15.8455 25.0698 15.8415C25.3761 15.8307 25.681 15.7949 25.9815 15.7344L25.9457 15.7405C25.8842 15.3959 25.854 15.0464 25.8552 14.6964C25.8551 14.3338 25.8871 13.9718 25.9509 13.6149L25.9457 13.6519C26.0556 12.8158 26.4756 12.0515 27.1225 11.5105L27.1278 11.5061C27.5965 11.1908 28.2752 11.0024 28.7699 11.3836L28.9274 11.274C28.8121 10.9733 28.7537 10.6539 28.7553 10.3319C28.7553 9.80979 28.9058 9.32183 29.1665 8.91204L29.1607 8.92254C29.4744 8.47895 29.9336 8.15941 30.4586 8.01954L30.4744 8.01604L30.4825 8ZM35.0935 13.294C35.0928 13.3936 35.067 13.4915 35.0184 13.5784C34.9699 13.6654 34.9002 13.7387 34.8158 13.7916L34.8132 13.7934C35.082 13.7877 35.3499 13.7614 35.6147 13.7146L35.5841 13.719V13.2809H35.111L35.0935 13.294ZM34.5767 13.8502L34.4892 13.964C34.5784 14.2443 34.7079 14.487 34.8736 14.7007L34.8692 14.6955C35.0664 14.4152 35.2679 14.1393 35.456 13.8502C35.3248 13.8397 35.1722 13.8336 35.0182 13.8336C34.8642 13.8336 34.7116 13.8395 34.5603 13.8511L34.5802 13.8502H34.5767Z" fill="white"/>
<path d="M25.8535 53.144C23.4535 53.144 21.5935 51.464 21.5935 49.004C21.5935 46.544 23.4535 44.864 25.8535 44.864C27.6175 44.864 28.6375 45.824 29.2015 46.82L27.7375 47.54C27.4015 46.892 26.6815 46.376 25.8535 46.376C24.4015 46.376 23.3455 47.492 23.3455 49.004C23.3455 50.516 24.4015 51.632 25.8535 51.632C26.6815 51.632 27.4015 51.128 27.7375 50.468L29.2015 51.176C28.6255 52.172 27.6175 53.144 25.8535 53.144ZM33.0598 53.144C31.5238 53.144 30.4198 52.628 29.6758 51.872L30.5998 50.576C31.1638 51.164 32.0398 51.656 33.1438 51.656C34.0798 51.656 34.5358 51.224 34.5358 50.768C34.5358 49.352 29.9278 50.324 29.9278 47.312C29.9278 45.98 31.0798 44.876 32.9638 44.876C34.2358 44.876 35.2918 45.26 36.0838 45.992L35.1358 47.24C34.4878 46.64 33.6238 46.364 32.8078 46.364C32.0758 46.364 31.6678 46.688 31.6678 47.168C31.6678 48.44 36.2638 47.588 36.2638 50.576C36.2638 52.04 35.2198 53.144 33.0598 53.144ZM43.2071 53H37.1831V51.668C40.4591 49.244 41.4191 48.416 41.4191 47.432C41.4191 46.736 40.7831 46.388 40.1231 46.388C39.2111 46.388 38.5151 46.748 37.9751 47.312L37.0031 46.184C37.7831 45.284 38.9711 44.876 40.0871 44.876C41.7911 44.876 43.1471 45.836 43.1471 47.432C43.1471 48.8 42.0191 49.988 39.9431 51.5H43.2071V53Z" fill="white"/>
</svg>
