<svg width="14" height="14" viewBox="0 0 14 14" fill="none" xmlns="http://www.w3.org/2000/svg">
<path d="M11.1823 9.73L13.043 10.5818C13.1048 10.6102 13.1571 10.6556 13.1939 10.7128C13.2307 10.77 13.2504 10.8365 13.2506 10.9044C13.2508 10.9724 13.2316 11.039 13.1952 11.0964C13.1588 11.1538 13.1068 11.1996 13.0452 11.2284L13.043 11.2293L6.99982 14L0.956633 11.2293C0.894861 11.2009 0.842494 11.1555 0.805708 11.0983C0.768923 11.0412 0.749255 10.9747 0.749025 10.9067C0.748796 10.8387 0.768013 10.7721 0.804411 10.7147C0.840808 10.6573 0.892867 10.6115 0.954445 10.5827L0.956633 10.5818L2.81732 9.73L6.41663 11.3807L6.99982 11.6664L7.58301 11.3982L11.1823 9.73ZM13.043 3.41819C13.1048 3.38982 13.1571 3.34437 13.1939 3.2872C13.2307 3.23004 13.2504 3.16355 13.2506 3.09557C13.2508 3.0276 13.2316 2.96097 13.1952 2.90356C13.1588 2.84615 13.1068 2.80035 13.0452 2.77156L13.043 2.77069L6.99982 0L0.956633 2.77069C0.894861 2.79906 0.842494 2.84451 0.805708 2.90167C0.768923 2.95883 0.749255 3.02533 0.749025 3.0933C0.748796 3.16128 0.768013 3.2279 0.804411 3.28531C0.840808 3.34272 0.892867 3.38852 0.954445 3.41731L0.956633 3.41819L6.99982 6.18888L13.043 3.41819ZM7.58913 7.50181L7.00595 7.77612L6.42276 7.50181L2.81776 5.83362L0.95707 6.67931C0.896694 6.70814 0.845679 6.75342 0.809893 6.80996C0.774106 6.86649 0.755 6.93197 0.754771 6.99888C0.754543 7.06578 0.773201 7.13139 0.808601 7.18817C0.844001 7.24494 0.894705 7.29057 0.954883 7.31981L0.95707 7.32069L7.00026 10.0914L13.0434 7.32069C13.1038 7.29186 13.1548 7.24658 13.1906 7.19004C13.2264 7.13351 13.2455 7.06803 13.2457 7.00112C13.246 6.93422 13.2273 6.86861 13.1919 6.81183C13.1565 6.75506 13.1058 6.70943 13.0456 6.68019L13.0434 6.67931L11.1828 5.83362L7.58913 7.50181Z" fill="#A3A3A3"/>
</svg>
