<svg width="67" height="57" viewBox="0 0 67 57" fill="none" xmlns="http://www.w3.org/2000/svg">
<path d="M46.9983 23.7416C46.5643 23.5417 46.0923 23.4388 45.6149 23.4402C45.1138 23.4402 44.6381 23.5515 44.2108 23.7504L44.2312 23.7416C44.3225 23.4059 44.3753 23.021 44.3753 22.6245C44.3753 21.0862 43.5872 19.7324 42.3957 18.9483L42.3791 18.9374C44.3954 18.7494 45.4504 15.2528 45.4504 15.2528C44.1218 12.7889 42.1741 10.8101 39.813 9.48559L39.741 9.44839C39.741 9.44839 36.3407 8.9777 35.3205 10.0603C34.0544 8 30.4552 8 30.4552 8C27.5998 8.55006 25.1235 9.90472 23.1962 11.8165L23.198 11.815C23.1983 12.3569 23.32 12.8918 23.5541 13.38C23.7882 13.8682 24.1287 14.2972 24.5504 14.6353L24.5574 14.6406C22.7637 15.0644 20.8993 17.596 21.2044 18.6205C21.0222 18.3755 20.7855 18.1765 20.5131 18.0394C20.2408 17.9024 19.9404 17.8311 19.6358 17.8312C19.6185 17.8312 19.6012 17.8315 19.5839 17.832H19.5865C19.2173 19.0408 19.0026 20.4301 19 21.8694V21.872C19 23.4252 19.2532 24.9184 19.7204 26.3138L19.6921 26.2157C20.3491 25.685 20.8485 24.9834 21.1359 24.1874L21.1455 24.1554C22.0345 24.7445 23.1259 25.0942 24.2981 25.0942C24.8748 25.0942 25.4324 25.0092 25.9592 24.8514L25.9177 24.8619C25.5485 25.6117 25.3321 26.494 25.3321 27.4274C25.3321 28.599 25.6733 29.6907 26.2607 30.6071L26.2467 30.5843C25.1441 30.7395 24.1296 31.2752 23.3773 32.0995L23.3738 32.1033C25.8915 34.5138 29.3075 35.9982 33.0694 36C34.2652 35.9974 35.4252 35.8427 36.5306 35.5548L36.4347 35.5762C35.7813 34.0563 34.5913 32.873 33.1108 32.248L33.0694 32.233C34.7112 32.1384 36.3291 29.7249 36.5869 28.0765C37.7661 28.6151 39.1448 28.9285 40.5967 28.9285C40.948 28.9287 41.299 28.9101 41.6482 28.8729L41.6053 28.8764C41.3536 29.4973 41.2078 30.2179 41.2078 30.9718C41.2078 31.726 41.3536 32.4465 41.619 33.1062L41.6062 33.0681C44.4867 30.8394 46.4706 27.5633 46.9912 23.8174L47 23.7433L46.9983 23.7416ZM36.2465 26.2968C34.4528 23.7536 29.3174 22.2346 26.6204 23.7422C28.168 19.9272 27.629 17.4431 25.7057 14.8055C29.2232 15.1347 33.3975 13.2983 35.0857 10.9439C35.567 13.4986 38.3684 17.7612 40.9482 18.6202C36.7511 20.539 36.2702 23.5653 36.2465 26.2968Z" fill="#A3A3A3"/>
<path d="M18.2885 54H16.5845V53.196C14.1605 52.992 12.7205 51.852 12.7205 50.004C12.7205 48.168 14.1605 47.028 16.5845 46.812V45.996H18.2885V46.812C20.7125 47.028 22.1525 48.156 22.1525 50.004C22.1525 51.852 20.7125 52.992 18.2885 53.196V54ZM20.4125 50.004C20.4125 49.092 19.6685 48.504 18.2885 48.336V51.672C19.6685 51.516 20.4125 50.916 20.4125 50.004ZM14.4725 50.004C14.4725 50.916 15.2045 51.504 16.5845 51.672V48.336C15.2045 48.504 14.4725 49.104 14.4725 50.004ZM23.1301 56.268L23.3581 54.9C23.4901 54.96 23.6941 54.996 23.8381 54.996C24.2341 54.996 24.4981 54.888 24.6421 54.576L24.8581 54.084L22.5061 48.204H24.1381L25.6501 52.236L27.1621 48.204H28.8061L26.0821 54.948C25.6501 56.04 24.8821 56.328 23.8861 56.352C23.7061 56.352 23.3221 56.316 23.1301 56.268ZM32.0905 54H30.5545V49.536H28.9345V48.204H33.7105V49.536H32.0905V54ZM37.3542 52.788C38.3022 52.788 38.8422 52.008 38.8422 51.072C38.8422 50.196 38.3022 49.416 37.3542 49.416C36.4062 49.416 35.8782 50.196 35.8782 51.072C35.8782 52.008 36.4062 52.788 37.3542 52.788ZM37.3542 54.144C35.4222 54.144 34.2942 52.716 34.2942 50.832C34.2942 48.012 35.3142 46.752 37.3062 46.488C38.2782 46.344 38.6142 46.2 38.6142 45.996H40.1982C40.1982 47.124 38.7342 47.436 37.7862 47.556C36.4182 47.736 35.8542 48.336 35.6982 49.008C36.1662 48.396 36.8742 48.06 37.6782 48.06C39.3342 48.06 40.4142 49.476 40.4142 51.084C40.4142 52.716 39.2862 54.144 37.3542 54.144ZM44.2799 54.144C42.3719 54.144 41.2199 52.752 41.2199 51.096C41.2199 49.452 42.3719 48.06 44.2799 48.06C46.1999 48.06 47.3519 49.452 47.3519 51.096C47.3519 52.752 46.1999 54.144 44.2799 54.144ZM44.2799 52.788C45.2279 52.788 45.7679 52.008 45.7679 51.096C45.7679 50.196 45.2279 49.416 44.2799 49.416C43.3319 49.416 42.8039 50.196 42.8039 51.096C42.8039 52.008 43.3319 52.788 44.2799 52.788ZM47.9426 54.144V52.896C48.4106 52.896 48.6866 52.416 48.8666 51.012L49.2386 48.204H53.9306V54H52.4066V49.536H50.5706L50.3786 51.192C50.1386 53.196 49.4186 54.144 47.9426 54.144Z" fill="#A3A3A3"/>
</svg>
