<svg width="12" height="12" viewBox="0 0 12 12" fill="none" xmlns="http://www.w3.org/2000/svg">
<path d="M11.9993 6.74315C11.8133 6.65784 11.611 6.61395 11.4064 6.61452C11.1916 6.61452 10.9877 6.66202 10.8046 6.7469L10.8134 6.74315C10.8525 6.5999 10.8751 6.43565 10.8751 6.2664C10.8751 5.6099 10.5374 5.03215 10.0267 4.69752L10.0196 4.6929C10.8837 4.61265 11.3359 3.1204 11.3359 3.1204C10.7665 2.0689 9.93175 1.2244 8.91988 0.659146L8.889 0.643271C8.889 0.643271 7.43175 0.442396 6.9945 0.904396C6.45188 0.0251465 4.90938 0.0251465 4.90938 0.0251465C3.68563 0.259896 2.62437 0.838022 1.79838 1.6539L1.79912 1.65327C1.79925 1.88453 1.85141 2.11279 1.95175 2.32115C2.05209 2.5295 2.19803 2.71261 2.37875 2.8569L2.38175 2.85915C1.613 3.04002 0.814 4.1204 0.94475 4.55765C0.86664 4.45306 0.765196 4.36814 0.64849 4.30966C0.531785 4.25117 0.403039 4.22074 0.2725 4.22077C0.265083 4.22077 0.257667 4.2209 0.25025 4.22115H0.251375C0.093125 4.73702 0.001125 5.3299 0 5.94415V5.94527C0 6.60815 0.1085 7.2454 0.30875 7.8409L0.296625 7.79902C0.578181 7.57252 0.792198 7.27311 0.915375 6.9334L0.9195 6.91977C1.3005 7.17115 1.76825 7.3204 2.27063 7.3204C2.51775 7.3204 2.75675 7.28415 2.9825 7.21677L2.96475 7.22127C2.8065 7.54127 2.71375 7.91777 2.71375 8.31615C2.71375 8.81615 2.86 9.28202 3.11175 9.67315L3.10575 9.6634C2.63319 9.72962 2.19841 9.95824 1.876 10.31L1.8745 10.3116C2.9535 11.3404 4.4175 11.9739 6.02975 11.9746C6.54225 11.9735 7.03937 11.9075 7.51312 11.7846L7.472 11.7938C7.192 11.1451 6.682 10.6401 6.0475 10.3734L6.02975 10.367C6.73338 10.3266 7.42675 9.29665 7.53725 8.59315C8.04263 8.82302 8.6335 8.95677 9.25575 8.95677C9.40627 8.95684 9.55669 8.94891 9.70638 8.93302L9.688 8.93452C9.58012 9.19952 9.51762 9.50702 9.51762 9.82877C9.51762 10.1506 9.58012 10.4581 9.69388 10.7396L9.68838 10.7234C10.9229 9.77227 11.7731 8.37415 11.9963 6.77552L12 6.7439L11.9993 6.74315ZM7.39138 7.83365C6.62262 6.74827 4.42175 6.10002 3.26588 6.7434C3.92913 5.11527 3.69812 4.05515 2.87387 2.92952C4.38137 3.07002 6.17037 2.28627 6.89388 1.28152C7.10013 2.37177 8.30075 4.1909 9.40637 4.55752C7.60763 5.3764 7.4015 6.6679 7.39138 7.83365Z" fill="#F0F0F0"/>
</svg>
