<svg width="66" height="56" viewBox="0 0 66 56" fill="none" xmlns="http://www.w3.org/2000/svg">
<path fill-rule="evenodd" clip-rule="evenodd" d="M32.9997 9C34.9754 8.99994 36.9283 9.40846 38.7279 10.1983C38.3429 10.4357 36.7213 11.2609 32.9997 11.2609C29.2781 11.2609 27.6565 10.4357 27.2715 10.1983C29.0712 9.40846 31.0241 8.99994 32.9997 9ZM32.9997 12.3913C36.8146 12.3913 39.8946 14.9235 39.8946 18.0435C39.8946 21.1635 36.8146 23.6957 32.9997 23.6957C29.1848 23.6957 26.1049 21.1635 26.1049 18.0435C26.1049 14.9235 29.1848 12.3913 32.9997 12.3913ZM24.2966 18.0435C25.5837 15.9424 26.0476 13.4626 25.6032 11.0574C23.5847 12.2745 21.9193 13.9696 20.764 15.983C19.6088 17.9963 19.0017 20.2616 19 22.5652C19.0032 23.186 19.0539 23.8056 19.1517 24.4191C21.26 22.6216 23.0047 20.4596 24.2966 18.0435ZM41.6801 18.0435C40.397 15.9367 39.9336 13.4549 40.3735 11.0461C42.398 12.2615 44.0691 13.9572 45.2286 15.9729C46.3882 17.9886 46.9978 20.2575 47 22.5652C46.9986 23.2086 46.9479 23.8509 46.8483 24.487C44.7252 22.6709 42.9722 20.4853 41.6801 18.0435ZM20.8555 24.1478C20.2319 24.7599 19.7854 25.5201 19.5606 26.3522C20.1418 28.2701 21.1534 30.0399 22.5228 31.5349C23.8922 33.0299 25.5857 34.2131 27.4821 35C28.6754 34.8988 29.7982 34.4087 30.667 33.6096C33.0003 31.3487 32.627 27.4826 29.932 24.8713C27.2371 22.26 23.1422 21.9322 20.8555 24.1478ZM35.3802 33.5643C33.0936 31.3487 33.432 27.4374 36.1269 24.8261C38.8335 22.26 42.8584 21.9322 45.145 24.0687C45.7729 24.6982 46.2159 25.4787 46.4283 26.3296C45.8501 28.2517 44.84 30.0259 43.4704 31.525C42.1008 33.024 40.4057 34.2108 38.5068 35C37.3267 34.8793 36.224 34.373 35.3802 33.5643Z" fill="#A3A3A3"/>
<path d="M18.4155 53H16.7115V52.196C14.2875 51.992 12.8475 50.852 12.8475 49.004C12.8475 47.168 14.2875 46.028 16.7115 45.812V44.996H18.4155V45.812C20.8395 46.028 22.2795 47.156 22.2795 49.004C22.2795 50.852 20.8395 51.992 18.4155 52.196V53ZM20.5395 49.004C20.5395 48.092 19.7955 47.504 18.4155 47.336V50.672C19.7955 50.516 20.5395 49.916 20.5395 49.004ZM14.5995 49.004C14.5995 49.916 15.3315 50.504 16.7115 50.672V47.336C15.3315 47.504 14.5995 48.104 14.5995 49.004ZM23.2571 55.268L23.4851 53.9C23.6171 53.96 23.8211 53.996 23.9651 53.996C24.3611 53.996 24.6251 53.888 24.7691 53.576L24.9851 53.084L22.6331 47.204H24.2651L25.7771 51.236L27.2891 47.204H28.9331L26.2091 53.948C25.7771 55.04 25.0091 55.328 24.0131 55.352C23.8331 55.352 23.4491 55.316 23.2571 55.268ZM32.2174 53H30.6814V48.536H29.0614V47.204H33.8374V48.536H32.2174V53ZM36.9051 53.144C35.7051 53.144 34.7691 52.772 34.2051 52.22L34.9011 51.272C35.4411 51.728 36.2091 51.932 36.9051 51.932C37.6851 51.932 38.1051 51.68 38.1051 51.308C38.1051 50.864 37.6011 50.66 36.8091 50.66H35.6211V49.484H36.8091C37.6011 49.484 37.9971 49.268 37.9971 48.86C37.9971 48.512 37.5171 48.272 36.8331 48.272C36.0771 48.272 35.4891 48.488 35.0331 48.932L34.2891 48.032C34.8531 47.468 35.6931 47.072 36.7491 47.072C38.5611 47.06 39.5811 47.672 39.5811 48.656C39.5811 49.4 38.8371 49.904 38.0691 50.024C38.7771 50.072 39.7011 50.528 39.7011 51.404C39.7011 52.424 38.6331 53.144 36.9051 53.144ZM45.844 53H44.32V52.4C43.924 52.868 43.24 53.144 42.484 53.144C41.56 53.144 40.468 52.52 40.468 51.224C40.468 49.868 41.56 49.352 42.484 49.352C43.252 49.352 43.936 49.604 44.32 50.06V49.28C44.32 48.692 43.816 48.308 43.048 48.308C42.424 48.308 41.848 48.536 41.356 48.992L40.78 47.972C41.488 47.348 42.4 47.06 43.312 47.06C44.632 47.06 45.844 47.588 45.844 49.256V53ZM43.096 52.112C43.588 52.112 44.068 51.944 44.32 51.608V50.888C44.068 50.552 43.588 50.384 43.096 50.384C42.496 50.384 42.004 50.696 42.004 51.26C42.004 51.8 42.496 52.112 43.096 52.112ZM46.8156 53.144V51.896C47.2836 51.896 47.5596 51.416 47.7396 50.012L48.1116 47.204H52.8036V53H51.2796V48.536H49.4436L49.2516 50.192C49.0116 52.196 48.2916 53.144 46.8156 53.144Z" fill="#A3A3A3"/>
</svg>
