<svg width="14" height="14" viewBox="0 0 14 14" fill="none" xmlns="http://www.w3.org/2000/svg">
<path fill-rule="evenodd" clip-rule="evenodd" d="M7.00032 1.16699C3.77845 1.16699 1.16699 3.77845 1.16699 7.00033C1.16699 10.2222 3.77845 12.8337 7.00032 12.8337C10.2222 12.8337 12.8336 10.2222 12.8336 7.00033C12.8336 3.77845 10.2222 1.16699 7.00032 1.16699ZM7.00032 2.04199C9.73895 2.04199 11.9586 4.2617 11.9586 7.00033C11.9586 9.73895 9.73895 11.9587 7.00032 11.9587C4.2617 11.9587 2.04199 9.73895 2.04199 7.00033C2.04199 4.2617 4.2617 2.04199 7.00032 2.04199ZM7.23643 4.51803C7.20746 4.30448 7.02441 4.13989 6.80292 4.13989C6.5613 4.13989 6.36542 4.33577 6.36542 4.57739V7.40481L6.3703 7.46999C6.38963 7.59836 6.46537 7.71287 6.57879 7.78053L8.77795 9.09245L8.83098 9.11943C9.02921 9.20396 9.26434 9.13108 9.37781 8.94086L9.4048 8.88784C9.48932 8.6896 9.41644 8.45447 9.22623 8.341L7.24019 7.15578L7.24042 4.57739L7.23643 4.51803Z" fill="#66A319"/>
</svg>
