<svg width="15" height="14" viewBox="0 0 15 14" fill="none" xmlns="http://www.w3.org/2000/svg">
<path fill-rule="evenodd" clip-rule="evenodd" d="M9.85556 1.88379C10.5153 1.88379 11.0724 2.29482 11.2513 2.86685L12.1044 5.6651H2.87189L3.72501 2.86685L3.72736 2.85723C3.81591 2.57633 3.99947 2.32973 4.25062 2.15427C4.50177 1.97881 4.80701 1.88393 5.12072 1.88379H9.85556ZM14.4113 6.73063H0.576889C0.425957 6.73347 0.282234 6.79143 0.176569 6.89206C0.0709033 6.99269 0.0117187 7.12797 0.0117188 7.26887C0.0117187 7.40977 0.0709033 7.54505 0.176569 7.64568C0.282234 7.74631 0.425957 7.80426 0.576889 7.8071C2.6565 8.08513 5.05814 8.24395 7.50009 8.24395C9.94205 8.24395 12.3432 8.08513 14.6945 7.77779L14.5543 7.79266C14.6923 7.76271 14.8136 7.68644 14.8952 7.57837C14.9767 7.4703 15.0128 7.338 14.9966 7.20667C14.9804 7.07535 14.913 6.95418 14.8072 6.86627C14.7014 6.77836 14.5647 6.72985 14.4231 6.72998L14.4113 6.73063ZM7.84791 9.42213H7.13306C5.6483 9.09073 3.92751 9.15526 2.08298 9.42213V9.96923L2.79783 10.0961C2.79783 10.0961 2.79783 12.1158 4.96181 12.1158C6.42033 12.1158 6.8947 10.8945 7.04962 10.0961H7.92173C8.07666 10.8945 8.55103 12.1158 10.0095 12.1158C12.1735 12.1158 12.1735 10.0961 12.1735 10.0961L12.8884 9.96923V9.42213C11.0795 9.15088 9.37087 9.09729 7.84791 9.42213Z" fill="#A3A3A3"/>
</svg>
