<svg width="72" height="12" viewBox="0 0 72 12" fill="none" xmlns="http://www.w3.org/2000/svg">
<path d="M6.77344 3.4929C6.72041 3.02225 6.50166 2.65767 6.11719 2.39915C5.73272 2.13731 5.24882 2.00639 4.66548 2.00639C4.24787 2.00639 3.8866 2.07268 3.58168 2.20526C3.27675 2.33452 3.03977 2.51349 2.87074 2.74219C2.70502 2.96757 2.62216 3.22443 2.62216 3.51278C2.62216 3.75473 2.6785 3.96354 2.79119 4.1392C2.9072 4.31487 3.058 4.46236 3.24361 4.58168C3.43253 4.69768 3.63471 4.79545 3.85014 4.875C4.06558 4.95123 4.27273 5.0142 4.47159 5.06392L5.46591 5.32244C5.79072 5.40199 6.12382 5.50971 6.4652 5.6456C6.80658 5.78149 7.12311 5.96046 7.41477 6.18253C7.70644 6.40459 7.94176 6.67969 8.12074 7.00781C8.30303 7.33594 8.39418 7.72869 8.39418 8.18608C8.39418 8.76278 8.24503 9.27486 7.94673 9.7223C7.65175 10.1697 7.22254 10.5227 6.65909 10.7812C6.09896 11.0398 5.42116 11.169 4.62571 11.169C3.8634 11.169 3.20384 11.0481 2.64702 10.8061C2.0902 10.5642 1.65436 10.2211 1.33949 9.77699C1.02462 9.32955 0.850616 8.79924 0.817472 8.18608H2.35866C2.38849 8.55398 2.50781 8.86056 2.71662 9.10582C2.92874 9.34777 3.19886 9.52841 3.52699 9.64773C3.85843 9.76373 4.22135 9.82173 4.61577 9.82173C5.04995 9.82173 5.43608 9.75379 5.77415 9.6179C6.11553 9.47869 6.384 9.28646 6.57955 9.04119C6.77509 8.79261 6.87287 8.5026 6.87287 8.17116C6.87287 7.86955 6.7867 7.62263 6.61435 7.4304C6.44531 7.23816 6.21496 7.07907 5.9233 6.95312C5.63494 6.82718 5.30848 6.71615 4.94389 6.62003L3.74077 6.2919C2.92543 6.06984 2.27912 5.74337 1.80185 5.3125C1.32789 4.88163 1.09091 4.31155 1.09091 3.60227C1.09091 3.01562 1.25 2.50355 1.56818 2.06605C1.88636 1.62855 2.31723 1.28883 2.8608 1.04688C3.40436 0.80161 4.01752 0.678977 4.70028 0.678977C5.38968 0.678977 5.99787 0.799952 6.52486 1.0419C7.05516 1.28385 7.47277 1.61695 7.7777 2.04119C8.08262 2.46212 8.24171 2.94602 8.25497 3.4929H6.77344ZM11.5971 6.46591V11H10.1106V0.818182H11.5772V4.60653H11.6717C11.8507 4.19555 12.1241 3.86908 12.492 3.62713C12.8599 3.38518 13.3405 3.2642 13.9338 3.2642C14.4574 3.2642 14.9148 3.37192 15.3059 3.58736C15.7003 3.80279 16.0053 4.12429 16.2207 4.55185C16.4395 4.97609 16.5488 5.50639 16.5488 6.14276V11H15.0623V6.32173C15.0623 5.7616 14.9181 5.32741 14.6298 5.01918C14.3414 4.70762 13.9404 4.55185 13.4267 4.55185C13.0753 4.55185 12.7605 4.62642 12.4821 4.77557C12.207 4.92472 11.9899 5.14347 11.8308 5.43182C11.675 5.71686 11.5971 6.06155 11.5971 6.46591ZM21.7491 11.1541C21.0332 11.1541 20.4084 10.9901 19.8748 10.6619C19.3412 10.3338 18.9269 9.87476 18.6319 9.2848C18.3369 8.69484 18.1895 8.00544 18.1895 7.21662C18.1895 6.42448 18.3369 5.73177 18.6319 5.13849C18.9269 4.54522 19.3412 4.08452 19.8748 3.75639C20.4084 3.42827 21.0332 3.2642 21.7491 3.2642C22.465 3.2642 23.0898 3.42827 23.6234 3.75639C24.157 4.08452 24.5713 4.54522 24.8663 5.13849C25.1613 5.73177 25.3088 6.42448 25.3088 7.21662C25.3088 8.00544 25.1613 8.69484 24.8663 9.2848C24.5713 9.87476 24.157 10.3338 23.6234 10.6619C23.0898 10.9901 22.465 11.1541 21.7491 11.1541ZM21.7541 9.90625C22.2181 9.90625 22.6026 9.78362 22.9075 9.53835C23.2124 9.29309 23.4378 8.96662 23.5836 8.55895C23.7328 8.15128 23.8074 7.70218 23.8074 7.21165C23.8074 6.72443 23.7328 6.27699 23.5836 5.86932C23.4378 5.45833 23.2124 5.12855 22.9075 4.87997C22.6026 4.63139 22.2181 4.5071 21.7541 4.5071C21.2868 4.5071 20.899 4.63139 20.5907 4.87997C20.2858 5.12855 20.0588 5.45833 19.9096 5.86932C19.7638 6.27699 19.6909 6.72443 19.6909 7.21165C19.6909 7.70218 19.7638 8.15128 19.9096 8.55895C20.0588 8.96662 20.2858 9.29309 20.5907 9.53835C20.899 9.78362 21.2868 9.90625 21.7541 9.90625ZM28.3912 11L26.144 3.36364H27.6802L29.1767 8.97159H29.2512L30.7527 3.36364H32.2889L33.7804 8.94673H33.8549L35.3414 3.36364H36.8777L34.6355 11H33.1191L31.568 5.48651H31.4537L29.9025 11H28.3912ZM44.2157 11.169C43.7318 11.169 43.2943 11.0795 42.9032 10.9006C42.5121 10.7183 42.2022 10.4548 41.9735 10.1101C41.7482 9.76539 41.6355 9.3428 41.6355 8.84233C41.6355 8.41146 41.7183 8.05682 41.8841 7.77841C42.0498 7.5 42.2735 7.27959 42.5552 7.11719C42.8369 6.95478 43.1518 6.83215 43.4998 6.74929C43.8478 6.66643 44.2025 6.60346 44.5637 6.56037C45.0211 6.50734 45.3923 6.46425 45.6774 6.43111C45.9624 6.39465 46.1696 6.33665 46.2988 6.2571C46.4281 6.17756 46.4927 6.0483 46.4927 5.86932V5.83452C46.4927 5.40033 46.3701 5.06392 46.1248 4.82528C45.8829 4.58665 45.5216 4.46733 45.041 4.46733C44.5405 4.46733 44.1461 4.57836 43.8578 4.80043C43.5727 5.01918 43.3755 5.26278 43.2662 5.53125L41.8691 5.21307C42.0349 4.74905 42.2768 4.37453 42.595 4.08949C42.9165 3.80114 43.286 3.59233 43.7037 3.46307C44.1213 3.33049 44.5604 3.2642 45.0211 3.2642C45.3261 3.2642 45.6492 3.30066 45.9906 3.37358C46.3353 3.44318 46.6568 3.57244 46.9551 3.76136C47.2567 3.95028 47.5036 4.22041 47.6958 4.57173C47.8881 4.91974 47.9842 5.37216 47.9842 5.92898V11H46.5325V9.95597H46.4728C46.3767 10.1482 46.2325 10.3371 46.0403 10.5227C45.8481 10.7083 45.6011 10.8625 45.2995 10.9851C44.9979 11.1077 44.6367 11.169 44.2157 11.169ZM44.5389 9.97585C44.9499 9.97585 45.3012 9.89465 45.5929 9.73224C45.8878 9.56984 46.1116 9.35772 46.264 9.09588C46.4198 8.83073 46.4977 8.54735 46.4977 8.24574V7.26136C46.4447 7.31439 46.3419 7.36411 46.1895 7.41051C46.0403 7.4536 45.8696 7.49171 45.6774 7.52486C45.4851 7.55469 45.2979 7.58286 45.1156 7.60938C44.9333 7.63258 44.7808 7.65246 44.6582 7.66903C44.3699 7.70549 44.1064 7.76681 43.8677 7.85298C43.6324 7.93916 43.4435 8.06345 43.301 8.22585C43.1618 8.38494 43.0922 8.59706 43.0922 8.86222C43.0922 9.23011 43.228 9.50852 43.4998 9.69744C43.7716 9.88305 44.118 9.97585 44.5389 9.97585ZM51.4506 0.818182V11H49.9641V0.818182H51.4506ZM54.937 0.818182V11H53.4505V0.818182H54.937ZM66.9856 11.1839L66.0907 10.299L69.198 7.19176H61.3926V5.89915H69.198L66.0907 2.79688L66.9856 1.90696L71.6241 6.54545L66.9856 11.1839Z" fill="#00A391"/>
</svg>
