<svg width="67" height="56" viewBox="0 0 67 56" fill="none" xmlns="http://www.w3.org/2000/svg">
<path fill-rule="evenodd" clip-rule="evenodd" d="M22.5851 11.5853C26.2105 7.94937 32.6272 8.4732 36.9048 12.7511C38.2521 14.0913 39.2666 15.7285 39.867 17.5315L28.5205 28.8353C26.7237 28.2442 25.0902 27.2407 23.7509 25.9049C19.473 21.6274 18.9597 15.2212 22.5851 11.5853ZM23.7328 21.4611C24.0831 21.6988 24.4769 21.8649 24.8916 21.9497C25.3063 22.0345 25.7336 22.0365 26.1491 21.9554C26.5645 21.8743 26.9598 21.7118 27.3122 21.4773C27.6646 21.2428 27.967 20.9408 28.2022 20.5889C28.4374 20.2369 28.6006 19.8419 28.6824 19.4266C28.7642 19.0113 28.763 18.5839 28.6789 18.1691C28.5949 17.7543 28.4295 17.3601 28.1924 17.0095C27.9554 16.6588 27.6512 16.3585 27.2976 16.1259C26.5901 15.6676 25.7306 15.5062 24.905 15.6765C24.0795 15.8468 23.3541 16.3352 22.8857 17.0361C22.4174 17.737 22.2437 18.5941 22.4022 19.422C22.5607 20.2499 23.0387 20.9822 23.7328 21.4605M40.3783 19.5936C40.3824 19.6111 40.3824 19.6294 40.3783 19.6469V19.5936ZM39.1168 25.7536C40.2505 23.9329 40.7014 21.769 40.3893 19.6469L30.6468 29.3901C31.0715 29.4547 31.5005 29.4869 31.9301 29.4863C33.637 29.4883 35.3094 29.0063 36.7534 28.0962L42.6247 34.8334L45.833 31.6251L39.1168 25.7536Z" fill="#A3A3A3"/>
<path d="M20.2342 53H18.5182V49.64H14.7382V53H13.0342V44.996H14.7382V48.14H18.5182V44.996H20.2342V53ZM26.7795 53H25.2555V52.4C24.8595 52.868 24.1755 53.144 23.4195 53.144C22.4955 53.144 21.4035 52.52 21.4035 51.224C21.4035 49.868 22.4955 49.352 23.4195 49.352C24.1875 49.352 24.8715 49.604 25.2555 50.06V49.28C25.2555 48.692 24.7515 48.308 23.9835 48.308C23.3595 48.308 22.7835 48.536 22.2915 48.992L21.7155 47.972C22.4235 47.348 23.3355 47.06 24.2475 47.06C25.5675 47.06 26.7795 47.588 26.7795 49.256V53ZM24.0315 52.112C24.5235 52.112 25.0035 51.944 25.2555 51.608V50.888C25.0035 50.552 24.5235 50.384 24.0315 50.384C23.4315 50.384 22.9395 50.696 22.9395 51.26C22.9395 51.8 23.4315 52.112 24.0315 52.112ZM30.9912 53.144C29.2032 53.144 27.9192 51.884 27.9192 50.096C27.9192 48.32 29.2032 47.06 30.9912 47.06C32.1792 47.06 32.8992 47.576 33.2832 48.104L32.2872 49.04C32.0112 48.632 31.5912 48.416 31.0632 48.416C30.1392 48.416 29.4912 49.088 29.4912 50.096C29.4912 51.104 30.1392 51.788 31.0632 51.788C31.5912 51.788 32.0112 51.548 32.2872 51.164L33.2832 52.088C32.8992 52.628 32.1792 53.144 30.9912 53.144ZM36.8834 53H35.3474V48.536H33.7274V47.204H38.5034V48.536H36.8834V53ZM42.1471 53.144C40.2391 53.144 39.0871 51.752 39.0871 50.096C39.0871 48.452 40.2391 47.06 42.1471 47.06C44.0671 47.06 45.2191 48.452 45.2191 50.096C45.2191 51.752 44.0671 53.144 42.1471 53.144ZM42.1471 51.788C43.0951 51.788 43.6351 51.008 43.6351 50.096C43.6351 49.196 43.0951 48.416 42.1471 48.416C41.1991 48.416 40.6711 49.196 40.6711 50.096C40.6711 51.008 41.1991 51.788 42.1471 51.788ZM48.0429 52.16C48.0429 52.676 47.5989 53.12 47.0709 53.12C46.5429 53.12 46.1109 52.676 46.1109 52.16C46.1109 51.632 46.5429 51.188 47.0709 51.188C47.5989 51.188 48.0429 51.632 48.0429 52.16ZM51.1149 52.16C51.1149 52.676 50.6709 53.12 50.1429 53.12C49.6149 53.12 49.1829 52.676 49.1829 52.16C49.1829 51.632 49.6149 51.188 50.1429 51.188C50.6709 51.188 51.1149 51.632 51.1149 52.16ZM54.1869 52.16C54.1869 52.676 53.7429 53.12 53.2149 53.12C52.6869 53.12 52.2549 52.676 52.2549 52.16C52.2549 51.632 52.6869 51.188 53.2149 51.188C53.7429 51.188 54.1869 51.632 54.1869 52.16Z" fill="#A3A3A3"/>
</svg>
