<svg width="14" height="14" viewBox="0 0 14 14" fill="none" xmlns="http://www.w3.org/2000/svg">
<path fill-rule="evenodd" clip-rule="evenodd" d="M7.00306 0.00171272C8.93112 0.00171272 10.6767 0.781338 11.9424 2.04192L11.9429 2.04134C13.2138 3.30892 14 5.06184 14 6.99821C14 10.8644 10.8662 13.9982 7 13.9982C3.13381 13.9982 0 10.8645 0 6.99821C0 6.37477 0.0818125 5.7703 0.223562 5.24384L0.82425 5.82717L0.825125 5.8279C1.49887 6.48896 2.00637 7.3189 2.28856 8.28884L2.29644 8.32296C2.604 9.43421 3.29875 10.3845 4.24244 11.0306L4.2245 11.0193C5.02535 11.5536 5.96684 11.838 6.92956 11.8365C9.62587 11.8365 11.8121 9.65048 11.8121 6.95403C11.8139 5.68903 11.3229 4.47307 10.4433 3.56398C9.87058 2.99713 9.15979 2.5694 8.33131 2.32703L8.28975 2.31609C7.35493 2.02777 6.50701 1.51032 5.82312 0.810796L5.23994 0.227463L5.19094 0.2384C5.78204 0.0806548 6.39127 0.00108103 7.00306 0.00171272ZM1.6466 5.00496L0.660771 4.01928L0.661646 4.01971L0.679146 3.97771C1.35683 2.5309 2.52685 1.36059 4.01552 0.6654L4.98371 1.67457C5.79906 2.48336 6.81537 3.08959 7.99954 3.42471L8.02579 3.43128C9.56477 3.88978 10.687 5.31559 10.687 7.0039C10.687 7.12552 10.6808 7.24628 10.6709 7.34996L10.6695 7.36615C10.5528 8.49971 9.93154 9.48321 9.02008 10.0975L9.03321 10.0891C8.42363 10.4983 7.70586 10.7163 6.97171 10.7152C5.27071 10.7152 3.83746 9.56853 3.39646 7.97996L3.38479 7.93228C3.064 6.82443 2.46566 5.81683 1.64646 5.00496" fill="#A3A3A3"/>
</svg>
