<svg width="66" height="56" viewBox="0 0 66 56" fill="none" xmlns="http://www.w3.org/2000/svg">
<path fill-rule="evenodd" clip-rule="evenodd" d="M32.7757 8.00343C36.6318 8.00343 40.123 9.56268 42.6544 12.0838L42.6553 12.0827C45.1972 14.6178 46.7695 18.1237 46.7695 21.9964C46.7695 29.7288 40.5019 35.9964 32.7695 35.9964C25.0372 35.9964 18.7695 29.7291 18.7695 21.9964C18.7695 20.7495 18.9332 19.5406 19.2167 18.4877L20.418 19.6543L20.4198 19.6558C21.7673 20.9779 22.7823 22.6378 23.3467 24.5777L23.3624 24.6459C23.9775 26.8684 25.367 28.7689 27.2544 30.0613L27.2185 30.0385C28.8202 31.1071 30.7032 31.676 32.6287 31.673C38.0213 31.673 42.3937 27.301 42.3937 21.9081C42.3973 19.3781 41.4154 16.9461 39.6561 15.128C38.5107 13.9943 37.0891 13.1388 35.4322 12.6541L35.349 12.6322C33.4794 12.0555 31.7836 11.0206 30.4158 9.62159L29.2494 8.45493L29.1514 8.4768C30.3336 8.16131 31.5521 8.00216 32.7757 8.00343ZM22.0627 18.0099L20.0911 16.0386L20.0928 16.0394L20.1278 15.9554C21.4832 13.0618 23.8232 10.7212 26.8006 9.3308L28.7369 11.3491C30.3677 12.9667 32.4003 14.1792 34.7686 14.8494L34.8211 14.8626C37.8991 15.7796 40.1434 18.6312 40.1434 22.0078C40.1434 22.251 40.1312 22.4926 40.1114 22.6999L40.1084 22.7323C39.8751 24.9994 38.6326 26.9664 36.8097 28.1949L36.8359 28.1783C35.6168 28.9966 34.1812 29.4325 32.7129 29.4304C29.3109 29.4304 26.4444 27.1371 25.5624 23.9599L25.5391 23.8646C24.8975 21.6489 23.7009 19.6337 22.0624 18.0099" fill="#A3A3A3"/>
<path d="M17.6978 53H15.9818V46.496H13.6418V44.996H20.0258V46.496H17.6978V53ZM22.6343 53.144C20.8703 53.144 19.5383 51.956 19.5383 50.096C19.5383 48.416 20.7743 47.06 22.5383 47.06C24.2663 47.06 25.4423 48.356 25.4423 50.252V50.588H21.1343C21.2303 51.32 21.8183 51.932 22.8023 51.932C23.2943 51.932 23.9783 51.716 24.3503 51.356L25.0223 52.34C24.4463 52.868 23.5343 53.144 22.6343 53.144ZM23.9663 49.556C23.9303 49.004 23.5463 48.272 22.5383 48.272C21.5903 48.272 21.1823 48.98 21.1103 49.556H23.9663ZM28.0671 53H26.5431V47.204H28.0671V49.352H30.4671V47.204H31.9911V53H30.4671V50.684H28.0671V53ZM35.028 53H33.504V47.204H35.028V49.352H37.428V47.204H38.952V53H37.428V50.684H35.028V53ZM41.929 53H40.465V47.204H41.989V50.708L44.377 47.204H45.913V53H44.389V49.364L41.929 53ZM50.1259 53.144C48.3379 53.144 47.0539 51.884 47.0539 50.096C47.0539 48.32 48.3379 47.06 50.1259 47.06C51.3139 47.06 52.0339 47.576 52.4179 48.104L51.4219 49.04C51.1459 48.632 50.7259 48.416 50.1979 48.416C49.2739 48.416 48.6259 49.088 48.6259 50.096C48.6259 51.104 49.2739 51.788 50.1979 51.788C50.7259 51.788 51.1459 51.548 51.4219 51.164L52.4179 52.088C52.0339 52.628 51.3139 53.144 50.1259 53.144Z" fill="#A3A3A3"/>
</svg>
