<svg width="14" height="14" viewBox="0 0 14 14" fill="none" xmlns="http://www.w3.org/2000/svg">
<path d="M14 7C14 10.866 10.866 14 7 14C3.13396 14 0 10.866 0 7C0 3.13396 3.13396 0 7 0C10.866 0 14 3.13396 14 7Z" fill="#26A17B"/>
<path d="M7.84048 7.60515V7.60427C7.79236 7.60777 7.5443 7.62265 6.99086 7.62265C6.54898 7.62265 6.23792 7.60952 6.12855 7.60427V7.60559C4.42755 7.53077 3.15792 7.23459 3.15792 6.88021C3.15792 6.52627 4.42755 6.23009 6.12855 6.15396V7.31071C6.23967 7.31859 6.55817 7.3374 6.9983 7.3374C7.52621 7.3374 7.79105 7.31552 7.84048 7.31115V6.15484C9.53798 6.23052 10.8045 6.52671 10.8045 6.88021C10.8045 7.23459 9.53798 7.5299 7.84048 7.60515ZM7.84048 6.03452V4.9994H10.2091V3.4209H3.75992V4.9994H6.12855V6.03409C4.20355 6.12246 2.75586 6.50396 2.75586 6.96071C2.75586 7.41746 4.20355 7.79852 6.12855 7.88734V11.2045H7.84048V7.88646C9.76242 7.79809 11.2066 7.41702 11.2066 6.96071C11.2066 6.5044 9.76242 6.12334 7.84048 6.03452Z" fill="white"/>
</svg>
