<svg width="16" height="16" viewBox="0 0 16 16" fill="none" xmlns="http://www.w3.org/2000/svg">
<g clip-path="url(#clip0_940_6427)">
<path d="M15.7588 9.93524C14.6904 14.2209 10.3496 16.8292 6.06336 15.7605C1.77889 14.692 -0.829339 10.351 0.239588 6.06557C1.30758 1.77935 5.64835 -0.829071 9.93329 0.239388C14.2192 1.30785 16.8273 5.64928 15.7588 9.93524Z" fill="#50AF95"/>
<path fill-rule="evenodd" clip-rule="evenodd" d="M9.01392 8.9069C8.95734 8.91114 8.66508 8.92858 8.01314 8.92858C7.49461 8.92858 7.12645 8.91303 6.99729 8.9069C4.9934 8.81875 3.49766 8.46991 3.49766 8.05226C3.49766 7.63461 4.9934 7.28625 6.99729 7.19669V8.55949C7.12834 8.56891 7.50357 8.59107 8.0221 8.59107C8.64434 8.59107 8.95593 8.56514 9.01202 8.55995V7.19763C11.0117 7.28673 12.5041 7.63555 12.5041 8.05226C12.5041 8.46898 11.0122 8.81781 9.01202 8.90643L9.01392 8.9069ZM9.01392 7.05669V5.83718H11.8046V3.97754H4.20664V5.83718H6.99682V7.05621C4.72894 7.16039 3.02344 7.60962 3.02344 8.14795C3.02344 8.68629 4.72894 9.13506 6.99682 9.2397V13.1476H9.01344V9.23829C11.2761 9.13411 12.9788 8.68534 12.9788 8.14749C12.9788 7.60962 11.2775 7.16086 9.01344 7.05621L9.01392 7.05669Z" fill="white"/>
</g>
<defs>
<clipPath id="clip0_940_6427">
<rect width="16" height="16" fill="white"/>
</clipPath>
</defs>
</svg>
